<?xml version="1.0" encoding="UTF-8"?>
<svg xmlns="http://www.w3.org/2000/svg" version="1.1" viewBox="0 0 595.28 841.89">
  <!-- Generator: Adobe Illustrator 29.2.1, SVG Export Plug-In . SVG Version: 2.1.0 Build 116)  -->
  <defs>
    <style>
      .st0, .st1, .st2, .st3, .st4, .st5, .st6, .st7 {
        stroke-miterlimit: 10;
      }

      .st0, .st2, .st4 {
        stroke-width: .25px;
      }

      .st0, .st3, .st6 {
        stroke: #000;
      }

      .st1 {
        fill: none;
        stroke: #231f20;
      }

      .st1, .st5, .st6 {
        stroke-width: .2px;
      }

      .st8, .st4, .st5, .st7 {
        fill: #fff;
      }

      .st2 {
        fill: #050506;
        stroke: #050506;
      }

      .st9 {
        fill: #140e19;
      }

      .st3, .st7 {
        stroke-width: .5px;
      }

      .st10 {
        fill: #030203;
      }

      .st4, .st5 {
        stroke: #fff;
      }

      .st7 {
        stroke: #1e2742;
      }
    </style>
  </defs>
  <g id="Layer_1">
    <polyline class="st1" points="298.93 346.13 298.93 341.53 298.93 326.83"/>
    <polyline class="st1" points="298.87 263.06 298.93 277.96 298.93 293.97"/>
  </g>
  <g id="Layer_2">
    <path class="st3" d="M385.04,335.49c-7.31-.09-13.21-1.64-17.11-3,4.72-1.6,13.37-5.23,21.56-13.26,8.03-7.88,11.81-16.27,13.53-20.93-5.83.5-13.61.79-22.73,0-4.17-.37-18.03-1.77-34.89-7.92-20.45-7.45-46.1-27.32-46.1-27.32,0,0-25.6,19.87-46.05,27.32-16.85,6.15-30.72,7.55-34.89,7.92-9.11.79-16.9.5-22.72,0,1.71,4.66,5.5,13.05,13.53,20.93,8.18,8.03,16.83,11.66,21.55,13.26-3.89,1.36-9.8,2.91-17.11,3-7.74.09-13.99-1.51-18-2.87-.05,17.59,3.49,58.05,28.09,101.93,23.75,42.39,60.08,63.67,75.6,72h.06c15.52-8.33,51.84-29.61,75.59-72,24.6-43.88,28.14-84.34,28.09-101.93-4.01,1.36-10.25,2.96-18,2.87ZM386.58,389.19h-175.37c-2.16-5.87-4.27-12.71-5.96-20.43-1.83-8.35-2.78-16-3.23-22.63h193.76c-.46,6.63-1.41,14.28-3.24,22.63-1.69,7.72-3.8,14.56-5.96,20.43Z"/>
    <path class="st7" d="M395.78,346.13c-.46,6.63-1.41,14.28-3.24,22.63-1.69,7.72-3.8,14.56-5.96,20.43h-175.37c-2.16-5.87-4.27-12.71-5.96-20.43-1.83-8.35-2.78-16-3.23-22.63h193.76Z"/>
    <path d="M309.18,520.28c-.47.02-1.46.01-2.55-.51-1.06-.51-1.68-1.24-1.96-1.62-.32-1.73.04-3.54.43-4.85.24-.83,5.79-6.55,12.98-10.13,4.96-2.47,11.74-4.93,19.87-7.4-.12,2.77-1.19,7.33-3.32,12.77-2.64,6.75-7.98,10.12-10.38,11.74.8.15,3.34.52,6.04-.85,2.32-1.18,3.49-3,3.91-3.74l13.36,5.45c-4.43,4.43-14.21,10.72-24.09,10.72-8.09,0-13.62-10.26-14.3-11.57Z"/>
    <path d="M346.57,490.83c-.41.09-1.28.24-2.32-.05-1.01-.28-1.67-.83-1.97-1.12-.55-1.47-.51-3.12-.38-4.33.08-.76,4.07-6.66,9.83-10.92,3.98-2.94,9.56-6.16,16.32-9.6.33,2.45.09,6.63-.93,11.74-1.27,6.34-5.45,10.14-7.3,11.94.73,0,3.02-.06,5.18-1.69,1.86-1.4,2.6-3.18,2.86-3.9l12.59,2.71c-3.2,4.58-10.83,11.64-19.51,13.17-7.11,1.26-13.57-6.9-14.37-7.95Z"/>
    <path d="M375.48,458.25c-.35.15-1.1.4-2.06.3-.93-.1-1.6-.48-1.91-.69-.71-1.22-.92-2.69-.98-3.78-.04-.69,2.6-6.5,7.07-11.14,3.08-3.2,7.54-6.88,13.01-10.94.66,2.12,1.07,5.85.93,10.53-.17,5.8-3.12,10.33-4.5,12.2.65-.1,2.48-1.04,4.15-2.81,1.43-1.52,1.83-1.91,1.95-2.59l11.55.51c-2.15,4.53-7.56,11.67-15.01,14.33-6.1,2.18-13.32-5.13-14.19-5.93Z"/>
    <path d="M396.48,425.34c-.3.19-1.71.72-2.61.77-.87.06-1.32-.85-1.47-1.11-.62-1.24-.76-2.99-.68-4,.05-.64.17-4.93,3.55-9.88,2.33-3.42,5.85-7.5,10.25-12.08.94,1.85,1.9,5.21,2.5,9.53.75,5.36-1.26,9.98-2.23,11.92.58-.19,2.12-1.35,3.38-3.23,1.08-1.62,1.38-2.04,1.39-2.68l8.57-.25c-1.27,4.5-3.01,10.83-9.44,14.43-5.27,2.95-12.28-2.81-13.2-3.42Z"/>
    <path d="M414.44,367.12c-3.86,4.57-7.13,11.1-8.23,14.05-.35.92-2.42,9.07.7,11.05.92.58,2.19.31,3.28-.13.42.48,3.53,3.98,7.66,3.49,2.57-.31,4.21-2,5.53-3.4,4.02-4.27,4.74-9.66,4.89-12.26-2.71.27-5.42.54-8.13.81.08.42.43,2.49-.89,4.38-.81,1.16-1.87,1.69-2.38,1.91.65-1.93,1.54-5.4,1.11-9.74-.49-4.88-2.41-8.41-3.53-10.17Z"/>
    <path d="M417.69,337.12c-2.57,4.56-4.34,10.77-4.84,13.52-.15.86-.68,8.31,2.25,9.59.86.38,1.89-.05,2.74-.58.43.36,3.57,2.98,6.98,1.96,2.12-.64,3.25-2.36,4.16-3.78,2.75-4.33,2.55-9.16,2.29-11.46-2.24.63-4.49,1.25-6.73,1.88.13.36.74,2.13-.1,3.97-.51,1.13-1.32,1.76-1.72,2.02.26-1.79.49-4.96-.53-8.71-1.14-4.21-3.29-7.03-4.51-8.41Z"/>
    <path d="M416.38,307.66c-1.63,4.59-2.36,10.7-2.43,13.38-.02.84.48,8.04,3.17,9.05.79.3,1.62-.19,2.29-.78.41.32,3.46,2.59,6.26,1.33,1.74-.78,2.5-2.53,3.09-3.97,1.81-4.38,1.02-9.01.5-11.2-1.85.78-3.3,1.55-5.15,2.33.16.33.51,2,.03,3.85-.29,1.13-.91,1.79-1.22,2.08,0-1.74-.22-4.81-1.57-8.33-1.52-3.95-3.74-6.5-4.96-7.73Z"/>
    <path d="M288.52,520.52c.47.02,1.46.01,2.55-.51,1.06-.51,1.68-1.24,1.96-1.62.32-1.73-.04-3.54-.43-4.85-.24-.83-5.79-6.55-12.98-10.13-4.96-2.47-11.74-4.93-19.87-7.4.12,2.77,1.19,7.33,3.32,12.77,2.64,6.75,7.98,10.12,10.38,11.74-.8.15-3.34.52-6.04-.85-2.32-1.18-3.49-3-3.91-3.74l-13.36,5.45c4.43,4.43,14.21,10.72,24.09,10.72,8.09,0,13.62-10.26,14.3-11.57Z"/>
    <path d="M251.13,491.06c.41.09,1.28.24,2.32-.05,1.01-.28,1.67-.83,1.97-1.12.55-1.47.51-3.12.38-4.33-.08-.76-4.07-6.66-9.83-10.92-3.98-2.94-9.56-6.16-16.32-9.6-.33,2.45-.09,6.63.93,11.74,1.27,6.34,5.45,10.14,7.3,11.94-.73,0-3.02-.06-5.18-1.69-1.86-1.4-2.6-3.18-2.86-3.9l-12.59,2.71c3.2,4.58,10.83,11.64,19.51,13.17,7.11,1.26,13.57-6.9,14.37-7.95Z"/>
    <path d="M222.21,458.49c.35.15,1.1.4,2.06.3.93-.1,1.6-.48,1.91-.69.71-1.22.92-2.69.98-3.78.04-.69-2.6-6.5-7.07-11.14-3.08-3.2-7.54-6.88-13.01-10.94-.66,2.12-1.07,5.85-.93,10.53.17,5.8,3.12,10.33,4.5,12.2-.65-.1-2.48-1.04-4.15-2.81-1.43-1.52-1.83-1.91-1.95-2.59l-11.55.51c2.15,4.53,7.56,11.67,15.01,14.33,6.1,2.18,13.32-5.13,14.19-5.93Z"/>
    <path d="M201.22,425.58c.3.19,1.71.72,2.61.77.87.06,1.32-.85,1.47-1.11.62-1.24.76-2.99.68-4-.05-.64-.17-4.93-3.55-9.88-2.33-3.42-5.85-7.5-10.25-12.08-.94,1.85-1.9,5.21-2.5,9.53-.75,5.36,1.26,9.98,2.23,11.92-.58-.19-2.12-1.35-3.38-3.23-1.08-1.62-1.38-2.04-1.39-2.68l-8.57-.25c1.27,4.5,3.01,10.83,9.44,14.43,5.27,2.95,12.28-2.81,13.2-3.42Z"/>
    <path d="M183.25,367.36c3.86,4.57,7.13,11.1,8.23,14.05.35.92,2.42,9.07-.7,11.05-.92.58-2.19.31-3.28-.13-.42.48-3.53,3.98-7.66,3.49-2.57-.31-4.21-2-5.53-3.4-4.02-4.27-4.74-9.66-4.89-12.26,2.71.27,5.42.54,8.13.81-.08.42-.43,2.49.89,4.38.81,1.16,1.87,1.69,2.38,1.91-.65-1.93-1.54-5.4-1.11-9.74.49-4.88,2.41-8.41,3.53-10.17Z"/>
    <path d="M180.01,337.36c2.57,4.56,4.34,10.77,4.84,13.52.15.86.68,8.31-2.25,9.59-.86.38-1.89-.05-2.74-.58-.43.36-3.57,2.98-6.98,1.96-2.12-.64-3.25-2.36-4.16-3.78-2.75-4.33-2.55-9.16-2.29-11.46,2.24.63,4.49,1.25,6.73,1.88-.13.36-.74,2.13.1,3.97.51,1.13,1.32,1.76,1.72,2.02-.26-1.79-.49-4.96.53-8.71,1.14-4.21,3.29-7.03,4.51-8.41Z"/>
    <path d="M181.32,307.9c1.63,4.59,2.36,10.7,2.43,13.38.02.84-.48,8.04-3.17,9.05-.79.3-1.62-.19-2.29-.78-.41.32-3.46,2.59-6.26,1.33-1.74-.78-2.5-2.53-3.09-3.97-1.81-4.38-1.02-9.01-.5-11.2,1.85.78,3.3,1.55,5.15,2.33-.16.33-.51,2-.03,3.85.29,1.13.91,1.79,1.22,2.08,0-1.74.22-4.81,1.57-8.33,1.52-3.95,3.74-6.5,4.96-7.73Z"/>
  </g>
  <g id="Layer_4">
    <path class="st5" d="M364.46,330.96c-4.28,1.75-8.21,2.82-11.49,3.49,1.06,1.35,2.55,3,4.6,4.59,2.53,1.97,4.99,3.14,6.81,3.83h-65.43s.03-63.57.03-63.57h.03c10.79,8.15,28.46,19.34,52.6,25.87,15.29,4.13,28.93,5.25,39.49,5.28-.9,1.66-2.11,3.6-3.74,5.61-1.47,1.81-2.95,3.28-4.26,4.43-6.92-.05-15.79-.76-25.79-3.24-11.92-2.95-21.38-7.41-28.08-11.23,4.01,3.69,9.8,8.24,17.53,12.09,8.14,4.05,15.22,5.74,18.89,6.46,3.54.7,6.59,1.03,8.85,1.19-2.69,1.71-6.04,3.56-10.04,5.2Z"/>
    <path class="st5" d="M223.34,325.8c2.26-.16,5.31-.49,8.85-1.19,3.67-.72,10.75-2.41,18.89-6.46,7.73-3.85,13.52-8.4,17.53-12.09-6.7,3.82-16.16,8.28-28.08,11.23-10,2.48-18.87,3.19-25.79,3.24-1.31-1.15-2.79-2.62-4.26-4.43-1.63-2.01-2.84-3.95-3.74-5.61,10.56-.03,24.2-1.15,39.49-5.28,24.14-6.53,41.81-17.72,52.6-25.87h.03l.03,63.57h-65.43c1.82-.69,4.28-1.86,6.81-3.83,2.05-1.59,3.54-3.24,4.6-4.59-3.28-.67-7.21-1.74-11.49-3.49-4-1.64-7.35-3.49-10.04-5.2Z"/>
    <path class="st5" d="M298.88,476.58c10.95-5.69,27.02-15.72,42.41-32.51,17.24-18.82,26.12-37.94,30.64-50.05h13.11c-4.69,13.7-14.21,35.92-33.53,58.05-19.18,21.95-39.74,34.34-52.63,40.85-.01,0-.01-16.35,0-16.34Z"/>
    <path class="st5" d="M298.86,492.92c-12.89-6.51-33.45-18.9-52.63-40.85-19.32-22.13-28.84-44.35-33.53-58.05h13.11c4.52,12.11,13.4,31.23,30.64,50.05,15.39,16.79,31.46,26.82,42.41,32.51.01,0,.01,16.34,0,16.34Z"/>
    <path class="st5" d="M298.91,394.02v8.43s.02.01.03.01c3.63-1.53,9.69-3.55,17.4-3.64,9.36-.1,16.53,2.68,20.3,4.47l-13.34,39.38c-2.02-1.14-6.06-3.05-11.5-3.25h-.05c-2.28-.08-4.31.16-6.02.52-1.58.33-2.9.76-3.88,1.14-.03.25-.13,1.27-.98,2.03-.62.56-1.34.67-1.63.71h-.32c.01,12.72.01,22.89.02,22.89,11.22-5.95,27.27-16.14,42.75-32.86,13.53-14.6,21.94-29.13,27.07-39.83h-69.85Z"/>
    <path class="st5" d="M229.04,394.02c5.13,10.7,13.54,25.23,27.07,39.83,15.48,16.72,31.53,26.91,42.75,32.86.01,0,.01-10.17.02-22.89h-.32c-.29-.04-1.01-.15-1.63-.71-.85-.76-.95-1.78-.98-2.03-.98-.38-2.3-.81-3.88-1.14-1.71-.36-3.74-.6-6.02-.52h-.05c-5.44.2-9.48,2.11-11.5,3.25l-13.34-39.38c3.77-1.79,10.94-4.57,20.3-4.47,7.71.09,13.77,2.11,17.4,3.64.01,0,.02-.01.03-.01,0-5.16,0-8.43,0-8.43h-69.85Z"/>
    <path class="st5" d="M297.86,404.52v33.2c-1.97-.67-5.15-1.49-9.13-1.34-3.78.13-6.78,1.08-8.66,1.85l-11.32-33.13c3.03-1.32,8.37-3.19,15.26-3.19,6.08,0,10.91,1.46,13.85,2.61Z"/>
    <path class="st5" d="M329.08,405.1l-11.31,33.13c-1.89-.77-4.88-1.72-8.67-1.85-3.97-.15-7.16.67-9.12,1.34v-33.2c2.94-1.15,7.76-2.61,13.85-2.61,6.88,0,12.23,1.87,15.25,3.19Z"/>
    <polyline class="st8" points="288.95 296.46 281.16 311.08 289.73 326.83 307.96 326.83 317.4 311.13 307.96 295.53 289.62 296.46"/>
  </g>
  <g id="Layer_3">
    <path class="st0" d="M313.18,302.87c-3.19-5.18-2.09-7.8-4.67-9.18-2.41-1.31-3.79.78-9.49.97h-.06c-6.09.18-7.81-2.09-10.3-.55-2.34,1.45-1.2,3.69-3.93,8.76-2.9,5.37-5.71,5.72-5.62,8.64.07,2.39,1.96,2.81,4.43,6.06h0c.38.5.78,1.07,1.18,1.73,2.91,4.74,2.25,7.33,4.07,8.8.18.14.37.27.6.39,2.42,1.3,3.8-.8,9.56-.97h.06c5.94-.17,7.69,2.01,10.11.61.04-.01.08-.04.12-.06,2.34-1.45,1.2-3.7,3.93-8.77.32-.6.65-1.14.97-1.62,2.52-3.85,4.74-4.43,4.65-7.02-.08-2.75-2.59-2.89-5.62-7.79ZM310.63,317.83c-2.25,4.15-1.31,5.99-3.23,7.18-2.03,1.25-3.44-.57-8.38-.45h-.06c-4.73.14-5.85,1.87-7.84.8-2.11-1.13-1.21-3.28-3.84-7.53-2.47-4.02-4.53-4.14-4.6-6.39-.08-2.4,2.23-2.69,4.6-7.09,2.25-4.16,1.31-6,3.23-7.19,2.04-1.26,3.45.6,8.45.45h.06c4.67-.16,5.79-1.86,7.77-.8,2.12,1.14,1.21,3.29,3.84,7.54,2.48,4.02,4.54,4.13,4.6,6.39.08,2.4-2.23,2.69-4.6,7.09Z"/>
    <path class="st2" d="M307.07,311.09c0,4.53-3.67,8.2-8.2,8.2s-8.2-3.67-8.2-8.2,3.67-8.2,8.2-8.2,8.2,3.67,8.2,8.2Z"/>
    <path class="st6" d="M321.56,413.07c-2.27-.75-5.43-1.32-9.28-1.52-3.99-.2-7.33.09-9.7.65v-1.89c2.41-.56,5.79-.86,9.83-.67,4.04.19,7.36.81,9.7,1.6l-.55,1.83Z"/>
    <path class="st6" d="M319.74,418.98c-2.05-.68-4.91-1.2-8.39-1.37-3.61-.18-6.62.08-8.77.58v-1.71c2.18-.51,5.23-.78,8.89-.6,3.65.17,6.65.74,8.77,1.45l-.5,1.65Z"/>
    <path class="st6" d="M318.28,424.18c-1.87-.62-4.48-1.09-7.64-1.25-3.29-.17-6.04.08-7.99.53v-1.56c1.98-.46,4.77-.71,8.1-.55,3.33.16,6.06.67,7.99,1.32l-.46,1.51Z"/>
    <path class="st6" d="M302.58,426.71v2.02c1.14-.3,2.5-.58,4.05-.72,1.64-.16,3.1-.13,4.32-.04v-1.79c-1.27-.13-2.79-.19-4.51-.06-1.46.11-2.76.34-3.86.6Z"/>
    <path class="st6" d="M276.17,413.22c2.27-.75,5.43-1.32,9.28-1.52,3.99-.2,7.33.09,9.7.65v-1.89c-2.41-.56-5.79-.86-9.83-.67-4.04.19-7.36.81-9.7,1.6l.55,1.83Z"/>
    <path class="st6" d="M277.99,419.13c2.05-.68,4.91-1.2,8.39-1.37,3.61-.18,6.62.08,8.77.58v-1.71c-2.18-.51-5.23-.78-8.89-.6-3.65.17-6.65.74-8.77,1.45l.5,1.65Z"/>
    <path class="st6" d="M279.46,424.33c1.87-.62,4.48-1.09,7.64-1.25,3.29-.17,6.04.08,7.99.53v-1.56c-1.98-.46-4.77-.71-8.1-.55-3.33.16-6.06.67-7.99,1.32l.46,1.51Z"/>
    <path class="st6" d="M280.97,429.61c1.71-.59,4.11-1.04,7.01-1.19,3.01-.16,5.54.07,7.33.51v-1.49c-1.82-.44-4.37-.68-7.43-.52-3.05.15-5.56.64-7.33,1.26l.42,1.44Z"/>
    <polygon class="st4" points="298.87 305.31 300.23 309.48 304.62 309.48 301.07 312.07 302.42 316.24 298.87 313.66 295.32 316.24 296.68 312.07 293.12 309.48 297.51 309.48 298.87 305.31"/>
    <path class="st0" d="M288.57,328.26l-6.48,8.36-.51-7.11-11.83.98s13.49-12.76,13.56-12.76h0c.38.5.78,1.07,1.18,1.73,2.91,4.74,2.25,7.33,4.07,8.8Z"/>
    <path class="st0" d="M328.14,330.58l-11.83-.98-.52,7.11-6.45-8.33s.08-.04.12-.06c2.34-1.45,1.2-3.7,3.93-8.77.32-.6.78-1.34,1.1-1.82l.09.09c.07,0,13.56,12.76,13.56,12.76Z"/>
    <path class="st6" d="M293.01,449.6l-3.15-2.6-4.42,4.38.82-12.23h.05c2.28-.08,4.31.16,6.02.52l.68,9.93Z"/>
    <g>
      <g>
        <polygon class="st8" points="218.79 374.44 218.79 359.93 225.08 359.93 225.08 362.98 222.34 362.98 222.34 364.94 224.98 364.94 224.98 367.99 222.34 367.99 222.34 371.39 225.08 371.39 225.08 374.44 218.79 374.44"/>
        <path d="M219.29,373.94v-13.5h5.29v2.05h-2.74v2.96h2.64v2.05h-2.64v4.4h2.74v2.05h-5.29Z"/>
        <path class="st8" d="M225.61,374.44v-14.5h3.13c3.05,0,4.33.71,4.33,5.11v4.82c0,2.75-.74,4.58-4.33,4.58h-3.13ZM229.16,371.46c.29-.09.35-.39.35-1.34v-5.56c0-1.27,0-1.59-.35-1.67v8.56Z"/>
        <path d="M226.11,360.43h2.63c2.86,0,3.83.57,3.83,4.61v4.82c0,2.56-.62,4.08-3.83,4.08h-2.63v-13.5ZM228.66,372c1.25,0,1.35-.59,1.35-1.88v-5.56c0-1.8-.06-2.2-1.35-2.2v9.64Z"/>
        <path class="st8" d="M237.56,374.7c-3.71,0-3.71-3.45-3.71-4.92v-9.85h3.55v10.23c0,.5,0,1.25.13,1.38.22-.13.22-.88.22-1.38v-10.23h3.55v10.15c-.05,2.4-.54,4.62-3.74,4.62Z"/>
        <path d="M240.8,370.09c-.06,2.86-.86,4.12-3.24,4.12-3.15,0-3.21-2.71-3.21-4.42v-9.35h2.55v9.73c0,1.08,0,1.88.66,1.88s.69-.8.69-1.88v-9.73h2.55v9.65Z"/>
        <polygon class="st8" points="242.05 374.44 242.05 359.93 248.34 359.93 248.34 362.98 245.61 362.98 245.61 364.94 248.25 364.94 248.25 367.99 245.61 367.99 245.61 374.44 242.05 374.44"/>
        <path d="M242.55,373.94v-13.5h5.29v2.05h-2.74v2.96h2.64v2.05h-2.64v6.45h-2.55Z"/>
        <rect class="st8" x="248.83" y="359.93" width="3.55" height="14.5"/>
        <path d="M249.33,373.94v-13.5h2.55v13.5h-2.55Z"/>
        <polygon class="st8" points="257.16 374.44 256.67 371.44 256.14 374.44 252.79 374.44 254.43 366.7 252.78 359.93 256.63 359.93 257.09 362.76 257.54 359.93 260.91 359.93 259.28 367.13 260.91 374.44 257.16 374.44"/>
        <path d="M255.72,373.94h-2.32l1.54-7.25-1.52-6.26h2.78l.88,5.37h.03l.86-5.37h2.32l-1.52,6.7,1.52,6.81h-2.7l-.88-5.41h-.03l-.95,5.41Z"/>
      </g>
      <g>
        <path class="st8" d="M272.56,374.97c-1.39,0-3.71-.58-3.71-4.45v-6.15c0-3.87,2.33-4.45,3.71-4.45,2.55,0,3.74,1.3,3.74,4.1v1.98h-3.55v-2.36c0-.37-.06-.56-.19-.56-.15,0-.16.47-.16.56v7.59c0,.09,0,.56.16.56.13,0,.19-.19.19-.56l.02-2.79h3.53v2.28c0,3.5-2.04,4.24-3.74,4.24Z"/>
        <path class="st9" d="M275.8,368.95v1.78c0,2.52-1.09,3.74-3.24,3.74-1.69,0-3.21-.85-3.21-3.95v-6.15c0-3.09,1.52-3.95,3.21-3.95,1.86,0,3.24.68,3.24,3.6v1.48h-2.55v-1.86c0-.55-.14-1.06-.69-1.06-.52,0-.66.51-.66,1.06v7.59c0,.55.14,1.06.66,1.06.55,0,.69-.51.69-1.06l.02-2.29h2.54Z"/>
        <polygon class="st8" points="281.2 374.7 280.9 371.38 280.42 371.38 280.01 374.7 276.84 374.7 278.84 360.2 283.23 360.2 284.74 374.7 281.2 374.7"/>
        <path class="st10" d="M282.78,360.7l1.41,13.5h-2.54l-.29-3.32h-1.38l-.41,3.32h-2.15l1.86-13.5h3.5ZM281.18,368.83l-.45-6.01h-.03l-.45,6.01h.92Z"/>
        <path class="st8" d="M289.75,374.7l-.14-.26c-.36-.64-.43-1.51-.43-2.12v-2.86c0-.54-.18-.83-.34-.9v6.14h-3.55v-14.5h3.07c2.39,0,4.37.27,4.37,3.65,0,1.38-.36,2.37-1.07,2.97.72.45,1.07,1.33,1.07,2.68v2.83c0,.66.12,1.27.32,1.63l.42.74h-3.71ZM288.84,365.56c.26-.09.34-.36.34-1.21s-.06-1.1-.34-1.19v2.39Z"/>
        <path class="st10" d="M285.79,374.2v-13.5h2.57c2.43,0,3.87.3,3.87,3.15,0,1.69-.57,2.79-1.95,3.07v.04c1.23.04,1.95.61,1.95,2.54v2.83c0,.53.08,1.33.38,1.88h-2.57c-.31-.55-.37-1.35-.37-1.88v-2.86c0-.95-.46-1.42-.92-1.42h-.42v6.16h-2.55ZM288.34,366.1c1.15,0,1.34-.47,1.34-1.75s-.17-1.73-1.34-1.73v3.47Z"/>
        <polygon class="st8" points="293.52 374.7 293.52 360.2 299.81 360.2 299.81 363.25 297.08 363.25 297.08 365.2 299.72 365.2 299.72 368.25 297.08 368.25 297.08 371.65 299.81 371.65 299.81 374.7 293.52 374.7"/>
        <path class="st10" d="M294.02,374.2v-13.5h5.29v2.05h-2.74v2.96h2.64v2.05h-2.64v4.4h2.74v2.05h-5.29Z"/>
        <polygon class="st8" points="300.32 374.7 300.32 360.2 306.6 360.2 306.6 363.25 303.87 363.25 303.87 365.2 306.51 365.2 306.51 368.25 303.87 368.25 303.87 371.65 306.6 371.65 306.6 374.7 300.32 374.7"/>
        <path class="st10" d="M300.82,374.2v-13.5h5.29v2.05h-2.74v2.96h2.64v2.05h-2.64v4.4h2.74v2.05h-5.29Z"/>
        <path class="st8" d="M311.57,374.7l-.14-.26c-.36-.64-.43-1.51-.43-2.12v-2.86c0-.54-.18-.83-.34-.9v6.14h-3.55v-14.5h3.07c2.39,0,4.37.27,4.37,3.65,0,1.38-.36,2.37-1.07,2.97.73.45,1.07,1.33,1.07,2.68v2.83c0,.66.12,1.28.32,1.63l.42.74h-3.71ZM310.66,365.56c.26-.09.34-.36.34-1.21s-.06-1.1-.34-1.19v2.39Z"/>
        <path class="st10" d="M307.61,374.2v-13.5h2.57c2.43,0,3.87.3,3.87,3.15,0,1.69-.57,2.79-1.95,3.07v.04c1.23.04,1.95.61,1.95,2.54v2.83c0,.53.08,1.33.38,1.88h-2.57c-.31-.55-.37-1.35-.37-1.88v-2.86c0-.95-.46-1.42-.92-1.42h-.42v6.16h-2.55ZM310.16,366.1c1.15,0,1.34-.47,1.34-1.75s-.17-1.73-1.34-1.73v3.47Z"/>
      </g>
      <g>
        <polygon class="st8" points="327.44 374.44 327.15 371.12 326.67 371.12 326.25 374.44 323.08 374.44 325.08 359.93 329.47 359.93 330.99 374.44 327.44 374.44"/>
        <path d="M329.02,360.43l1.41,13.5h-2.54l-.29-3.32h-1.38l-.42,3.32h-2.15l1.86-13.5h3.5ZM327.42,368.57l-.45-6.01h-.03l-.45,6.01h.92Z"/>
        <path class="st8" d="M335.27,374.7c-1.39,0-3.71-.58-3.71-4.45v-6.15c0-3.87,2.33-4.45,3.71-4.45,2.55,0,3.74,1.3,3.74,4.1v1.98h-3.55v-2.36c0-.56-.14-.56-.19-.56-.15,0-.16.47-.16.56v7.59c0,.09,0,.56.16.56.05,0,.19,0,.19-.56l.02-2.79h3.53v2.28c0,3.5-2.04,4.24-3.74,4.24Z"/>
        <path d="M338.52,368.68v1.78c0,2.52-1.09,3.74-3.24,3.74-1.69,0-3.21-.85-3.21-3.95v-6.15c0-3.09,1.52-3.95,3.21-3.95,1.86,0,3.24.68,3.24,3.6v1.48h-2.55v-1.86c0-.55-.14-1.06-.69-1.06-.52,0-.66.51-.66,1.06v7.59c0,.55.14,1.06.66,1.06.55,0,.69-.51.69-1.06l.02-2.29h2.54Z"/>
        <polygon class="st8" points="343.91 374.44 343.62 371.12 343.14 371.12 342.72 374.44 339.56 374.44 341.55 359.93 345.94 359.93 347.46 374.44 343.91 374.44"/>
        <path d="M345.49,360.43l1.41,13.5h-2.54l-.29-3.32h-1.38l-.41,3.32h-2.15l1.86-13.5h3.5ZM343.9,368.57l-.45-6.01h-.03l-.45,6.01h.92Z"/>
        <path class="st8" d="M348.04,374.44v-14.5h3.13c3.05,0,4.33.71,4.33,5.11v4.82c0,2.75-.74,4.58-4.33,4.58h-3.13ZM351.59,371.46c.29-.09.35-.39.35-1.34v-5.56c0-1.27,0-1.59-.35-1.67v8.56Z"/>
        <path d="M348.54,360.43h2.63c2.86,0,3.83.57,3.83,4.61v4.82c0,2.56-.62,4.08-3.83,4.08h-2.63v-13.5ZM351.09,372c1.25,0,1.35-.59,1.35-1.88v-5.56c0-1.8-.06-2.2-1.35-2.2v9.64Z"/>
        <polygon class="st8" points="356.24 374.44 356.24 359.93 362.53 359.93 362.53 362.98 359.79 362.98 359.79 364.94 362.44 364.94 362.44 367.99 359.79 367.99 359.79 371.39 362.53 371.39 362.53 374.44 356.24 374.44"/>
        <path d="M356.74,373.94v-13.5h5.29v2.05h-2.74v2.96h2.64v2.05h-2.64v4.4h2.74v2.05h-5.29Z"/>
        <polygon class="st8" points="370.35 374.44 370.35 370.02 369.78 374.44 366.66 374.44 366.09 370.02 366.09 374.44 363.05 374.44 363.05 359.93 367.75 359.93 368.39 365.68 369.03 359.93 373.65 359.93 373.65 374.44 370.35 374.44"/>
        <path d="M365.59,373.94h-2.04v-13.5h3.75l1.08,9.6h.03l1.08-9.6h3.67v13.5h-2.3v-11.53h-.03l-1.48,11.53h-2.24l-1.48-11.53h-.03v11.53Z"/>
        <polygon class="st8" points="376.37 374.44 376.37 369.03 374.06 359.93 377.62 359.93 378.15 362.98 378.68 359.93 382.23 359.93 379.92 369.03 379.92 374.44 376.37 374.44"/>
        <path d="M376.87,368.97l-2.17-8.54h2.49l.94,5.37h.03l.94-5.37h2.49l-2.17,8.54v4.97h-2.55v-4.97Z"/>
      </g>
    </g>
  </g>
</svg>