<svg xmlns="http://www.w3.org/2000/svg" xmlns:xlink="http://www.w3.org/1999/xlink" xmlns:inkscape="http://www.inkscape.org/namespaces/inkscape" version="1.1" viewBox="154.95 283.67 270.67 274.57">
<defs>
<clipPath id="clip_0">
<path transform="matrix(1,0,0,-1,0,841.89)" d="M0 841.89H595.276V0H0Z"/>
</clipPath>
<clipPath id="clip_1">
<path transform="matrix(1,0,0,-1,0,841.89)" d="M0 841.89H595.276V0H0Z"/>
</clipPath>
<clipPath id="clip_2">
<path transform="matrix(1,0,0,-1,0,841.89)" d="M0 841.89H595.276V0H0Z"/>
</clipPath>
</defs>
<g inkscape:groupmode="layer" inkscape:label="Layer 5">
</g>
<g inkscape:groupmode="layer" inkscape:label="Layer 1">
<path transform="matrix(1,0,0,-1,290.3712,369.4982)" stroke-width=".2" stroke-linecap="butt" stroke-miterlimit="10" stroke-linejoin="miter" fill="none" stroke="#231f20" d="M0 0V4.6 19.3"/>
<path transform="matrix(1,0,0,-1,290.3112,286.42823)" stroke-width=".2" stroke-linecap="butt" stroke-miterlimit="10" stroke-linejoin="miter" fill="none" stroke="#231f20" d="M0 0 .06-14.9V-30.91"/>
</g>
<g inkscape:groupmode="layer" inkscape:label="Layer 2">
<g clip-path="url(#clip_0)">
<path transform="matrix(1,0,0,-1,378.0211,412.55824)" d="M0 0H-175.37C-177.53 5.87-179.64 12.71-181.33 20.43-183.16 28.78-184.11 36.43-184.56 43.06H9.2C8.74 36.43 7.79 28.78 5.96 20.43 4.27 12.71 2.16 5.87 0 0M-1.544 53.7C-8.854 53.79-14.754 55.34-18.654 56.7-13.934 58.3-5.284 61.93 2.906 69.96 10.936 77.84 14.716 86.23 16.436 90.89 10.606 90.39 2.826 90.1-6.294 90.89-10.464 91.26-24.324 92.66-41.184 98.81-61.634 106.26-87.284 126.13-87.284 126.13-87.284 126.13-112.884 106.26-133.334 98.81-150.184 92.66-164.054 91.26-168.224 90.89-177.334 90.1-185.124 90.39-190.944 90.89-189.234 86.23-185.444 77.84-177.414 69.96-169.234 61.93-160.584 58.3-155.864 56.7-159.754 55.34-165.664 53.79-172.974 53.7-180.714 53.61-186.964 55.21-190.974 56.57-191.024 38.98-187.484-1.48-162.884-45.36-139.134-87.75-102.804-109.03-87.284-117.36H-87.224C-71.704-109.03-35.384-87.75-11.634-45.36 12.966-1.48 16.506 38.98 16.456 56.57 12.446 55.21 6.206 53.61-1.544 53.7" fill="#b2d4d1"/>
<path transform="matrix(1,0,0,-1,378.0211,412.55824)" stroke-width=".5" stroke-linecap="butt" stroke-miterlimit="10" stroke-linejoin="miter" fill="none" stroke="#b2d4d1" d="M0 0H-175.37C-177.53 5.87-179.64 12.71-181.33 20.43-183.16 28.78-184.11 36.43-184.56 43.06H9.2C8.74 36.43 7.79 28.78 5.96 20.43 4.27 12.71 2.16 5.87 0 0ZM-1.544 53.7C-8.854 53.79-14.754 55.34-18.654 56.7-13.934 58.3-5.284 61.93 2.906 69.96 10.936 77.84 14.716 86.23 16.436 90.89 10.606 90.39 2.826 90.1-6.294 90.89-10.464 91.26-24.324 92.66-41.184 98.81-61.634 106.26-87.284 126.13-87.284 126.13-87.284 126.13-112.884 106.26-133.334 98.81-150.184 92.66-164.054 91.26-168.224 90.89-177.334 90.1-185.124 90.39-190.944 90.89-189.234 86.23-185.444 77.84-177.414 69.96-169.234 61.93-160.584 58.3-155.864 56.7-159.754 55.34-165.664 53.79-172.974 53.7-180.714 53.61-186.964 55.21-190.974 56.57-191.024 38.98-187.484-1.48-162.884-45.36-139.134-87.75-102.804-109.03-87.284-117.36H-87.224C-71.704-109.03-35.384-87.75-11.634-45.36 12.966-1.48 16.506 38.98 16.456 56.57 12.446 55.21 6.206 53.61-1.544 53.7Z"/>
<path transform="matrix(1,0,0,-1,387.2212,369.4982)" d="M0 0C-.46-6.63-1.41-14.28-3.24-22.63-4.93-30.35-7.04-37.19-9.2-43.06H-184.57C-186.73-37.19-188.84-30.35-190.53-22.63-192.36-14.28-193.31-6.63-193.76 0Z" fill="#ffffff"/>
<path transform="matrix(1,0,0,-1,387.2212,369.4982)" stroke-width=".5" stroke-linecap="butt" stroke-miterlimit="10" stroke-linejoin="miter" fill="none" stroke="#b2d4d1" d="M0 0C-.46-6.63-1.41-14.28-3.24-22.63-4.93-30.35-7.04-37.19-9.2-43.06H-184.57C-186.73-37.19-188.84-30.35-190.53-22.63-192.36-14.28-193.31-6.63-193.76 0H0Z"/>
<path transform="matrix(1,0,0,-1,300.6195,543.65286)" d="M0 0C-.472-.025-1.462-.013-2.553 .511-3.61 1.018-4.23 1.749-4.511 2.128-4.832 3.862-4.466 5.67-4.085 6.979-3.845 7.805 1.702 13.532 8.893 17.107 13.854 19.573 20.634 22.035 28.766 24.511 28.65 21.741 27.572 17.185 25.447 11.745 22.811 4.998 17.462 1.621 15.064 0 15.867-.152 18.401-.525 21.106 .851 23.427 2.031 24.595 3.848 25.021 4.596L38.383-.851C33.957-5.277 24.17-11.574 14.298-11.574 6.213-11.574 .677-1.31 0 0" fill="#b2d4d1"/>
<path transform="matrix(1,0,0,-1,300.6195,543.65286)" stroke-width=".5" stroke-linecap="butt" stroke-miterlimit="10" stroke-linejoin="miter" fill="none" stroke="#b2d4d1" d="M0 0C-.472-.025-1.462-.013-2.553 .511-3.61 1.018-4.23 1.749-4.511 2.128-4.832 3.862-4.466 5.67-4.085 6.979-3.845 7.805 1.702 13.532 8.893 17.107 13.854 19.573 20.634 22.035 28.766 24.511 28.65 21.741 27.572 17.185 25.447 11.745 22.811 4.998 17.462 1.621 15.064 0 15.867-.152 18.401-.525 21.106 .851 23.427 2.031 24.595 3.848 25.021 4.596L38.383-.851C33.957-5.277 24.17-11.574 14.298-11.574 6.213-11.574 .677-1.31 0 0Z"/>
<path transform="matrix(1,0,0,-1,338.0061,514.1985)" d="M0 0C-.411-.095-1.283-.238-2.324 .052-3.332 .333-3.991 .88-4.297 1.169-4.849 2.644-4.809 4.29-4.677 5.5-4.594 6.264-.609 12.162 5.157 16.423 9.135 19.364 14.713 22.583 21.477 26.025 21.806 23.572 21.567 19.398 20.545 14.285 19.277 7.943 15.1 4.141 13.244 2.344 13.974 2.335 16.259 2.401 18.424 4.032 20.281 5.431 21.025 7.21 21.283 7.933L33.878 5.223C30.676 .644 23.051-6.416 14.371-7.952 7.263-9.209 .799-1.047 0 0" fill="#b2d4d1"/>
<path transform="matrix(1,0,0,-1,338.0061,514.1985)" stroke-width=".5" stroke-linecap="butt" stroke-miterlimit="10" stroke-linejoin="miter" fill="none" stroke="#b2d4d1" d="M0 0C-.411-.095-1.283-.238-2.324 .052-3.332 .333-3.991 .88-4.297 1.169-4.849 2.644-4.809 4.29-4.677 5.5-4.594 6.264-.609 12.162 5.157 16.423 9.135 19.364 14.713 22.583 21.477 26.025 21.806 23.572 21.567 19.398 20.545 14.285 19.277 7.943 15.1 4.141 13.244 2.344 13.974 2.335 16.259 2.401 18.424 4.032 20.281 5.431 21.025 7.21 21.283 7.933L33.878 5.223C30.676 .644 23.051-6.416 14.371-7.952 7.263-9.209 .799-1.047 0 0Z"/>
<path transform="matrix(1,0,0,-1,366.9207,481.626)" d="M0 0C-.349-.146-1.1-.403-2.065-.302-2.999-.204-3.664 .181-3.977 .392-4.687 1.614-4.897 3.077-4.962 4.168-5.003 4.856-2.358 10.672 2.107 15.306 5.187 18.503 9.642 22.186 15.114 26.244 15.772 24.122 16.185 20.393 16.045 15.715 15.871 9.913 12.92 5.382 11.547 3.514 12.194 3.615 14.03 4.557 15.701 6.324 17.135 7.84 17.528 8.234 17.648 8.913L29.199 8.399C27.051 3.867 21.636-3.276 14.185-5.933 8.083-8.11 .863-.807 0 0" fill="#b2d4d1"/>
<path transform="matrix(1,0,0,-1,366.9207,481.626)" stroke-width=".5" stroke-linecap="butt" stroke-miterlimit="10" stroke-linejoin="miter" fill="none" stroke="#b2d4d1" d="M0 0C-.349-.146-1.1-.403-2.065-.302-2.999-.204-3.664 .181-3.977 .392-4.687 1.614-4.897 3.077-4.962 4.168-5.003 4.856-2.358 10.672 2.107 15.306 5.187 18.503 9.642 22.186 15.114 26.244 15.772 24.122 16.185 20.393 16.045 15.715 15.871 9.913 12.92 5.382 11.547 3.514 12.194 3.615 14.03 4.557 15.701 6.324 17.135 7.84 17.528 8.234 17.648 8.913L29.199 8.399C27.051 3.867 21.636-3.276 14.185-5.933 8.083-8.11 .863-.807 0 0Z"/>
<path transform="matrix(1,0,0,-1,387.917,448.7135)" d="M0 0C-.298-.188-1.712-.717-2.615-.775-3.489-.83-3.936 .08-4.085 .34-4.702 1.58-4.846 3.335-4.766 4.34-4.715 4.981-4.595 9.266-1.214 14.221 1.119 17.639 4.639 21.719 9.035 26.301 9.971 24.454 10.932 21.091 11.533 16.77 12.278 11.41 10.272 6.786 9.301 4.854 9.88 5.049 11.42 6.201 12.681 8.085 13.763 9.702 14.062 10.125 14.067 10.768L22.638 11.015C21.37 6.515 19.632 .187 13.198-3.417 7.929-6.369 .919-.607 0 0" fill="#b2d4d1"/>
<path transform="matrix(1,0,0,-1,387.917,448.7135)" stroke-width=".5" stroke-linecap="butt" stroke-miterlimit="10" stroke-linejoin="miter" fill="none" stroke="#b2d4d1" d="M0 0C-.298-.188-1.712-.717-2.615-.775-3.489-.83-3.936 .08-4.085 .34-4.702 1.58-4.846 3.335-4.766 4.34-4.715 4.981-4.595 9.266-1.214 14.221 1.119 17.639 4.639 21.719 9.035 26.301 9.971 24.454 10.932 21.091 11.533 16.77 12.278 11.41 10.272 6.786 9.301 4.854 9.88 5.049 11.42 6.201 12.681 8.085 13.763 9.702 14.062 10.125 14.067 10.768L22.638 11.015C21.37 6.515 19.632 .187 13.198-3.417 7.929-6.369 .919-.607 0 0Z"/>
<path transform="matrix(1,0,0,-1,405.8824,390.49284)" d="M0 0C-3.861-4.568-7.125-11.102-8.234-14.053-8.58-14.973-10.656-23.126-7.532-25.106-6.614-25.688-5.344-25.413-4.255-24.979-3.837-25.463-.726-28.96 3.404-28.468 5.975-28.162 7.616-26.467 8.936-25.064 12.955-20.792 13.678-15.405 13.83-12.809 11.121-13.078 8.411-13.348 5.702-13.617 5.783-14.037 6.135-16.112 4.809-18 3.997-19.156 2.94-19.694 2.426-19.915 3.076-17.987 3.968-14.512 3.532-10.17 3.043-5.295 1.124-1.763 0 0" fill="#b2d4d1"/>
<path transform="matrix(1,0,0,-1,405.8824,390.49284)" stroke-width=".5" stroke-linecap="butt" stroke-miterlimit="10" stroke-linejoin="miter" fill="none" stroke="#b2d4d1" d="M0 0C-3.861-4.568-7.125-11.102-8.234-14.053-8.58-14.973-10.656-23.126-7.532-25.106-6.614-25.688-5.344-25.413-4.255-24.979-3.837-25.463-.726-28.96 3.404-28.468 5.975-28.162 7.616-26.467 8.936-25.064 12.955-20.792 13.678-15.405 13.83-12.809 11.121-13.078 8.411-13.348 5.702-13.617 5.783-14.037 6.135-16.112 4.809-18 3.997-19.156 2.94-19.694 2.426-19.915 3.076-17.987 3.968-14.512 3.532-10.17 3.043-5.295 1.124-1.763 0 0Z"/>
<path transform="matrix(1,0,0,-1,409.1284,360.49394)" d="M0 0C-2.572-4.565-4.344-10.767-4.836-13.516-4.99-14.373-5.517-21.824-2.585-23.111-1.723-23.489-.694-23.064 .16-22.526 .585-22.89 3.735-25.509 7.145-24.481 9.268-23.841 10.397-22.118 11.3-20.696 14.049-16.369 13.85-11.539 13.588-9.24 11.344-9.867 9.099-10.495 6.854-11.122 6.985-11.479 7.594-13.248 6.758-15.096 6.247-16.227 5.436-16.852 5.035-17.119 5.294-15.334 5.525-12.157 4.506-8.412 3.361-4.206 1.212-1.385 0 0" fill="#b2d4d1"/>
<path transform="matrix(1,0,0,-1,409.1284,360.49394)" stroke-width=".5" stroke-linecap="butt" stroke-miterlimit="10" stroke-linejoin="miter" fill="none" stroke="#b2d4d1" d="M0 0C-2.572-4.565-4.344-10.767-4.836-13.516-4.99-14.373-5.517-21.824-2.585-23.111-1.723-23.489-.694-23.064 .16-22.526 .585-22.89 3.735-25.509 7.145-24.481 9.268-23.841 10.397-22.118 11.3-20.696 14.049-16.369 13.85-11.539 13.588-9.24 11.344-9.867 9.099-10.495 6.854-11.122 6.985-11.479 7.594-13.248 6.758-15.096 6.247-16.227 5.436-16.852 5.035-17.119 5.294-15.334 5.525-12.157 4.506-8.412 3.361-4.206 1.212-1.385 0 0Z"/>
<path transform="matrix(1,0,0,-1,407.8181,331.03474)" d="M0 0C-1.627-4.594-2.356-10.7-2.427-13.382-2.449-14.219-1.947-21.427 .741-22.433 1.531-22.728 2.362-22.238 3.028-21.653 3.441-21.97 6.487-24.24 9.289-22.982 11.033-22.199 11.784-20.452 12.379-19.013 14.188-14.633 13.398-10.004 12.878-7.813 11.027-8.594 9.575-9.358 7.724-10.139 7.882-10.472 8.234-12.142 7.752-13.985 7.457-15.113 6.84-15.779 6.529-16.068 6.523-14.33 6.314-11.256 4.956-7.734 3.432-3.78 1.221-1.236 0 0" fill="#b2d4d1"/>
<path transform="matrix(1,0,0,-1,407.8181,331.03474)" stroke-width=".5" stroke-linecap="butt" stroke-miterlimit="10" stroke-linejoin="miter" fill="none" stroke="#b2d4d1" d="M0 0C-1.627-4.594-2.356-10.7-2.427-13.382-2.449-14.219-1.947-21.427 .741-22.433 1.531-22.728 2.362-22.238 3.028-21.653 3.441-21.97 6.487-24.24 9.289-22.982 11.033-22.199 11.784-20.452 12.379-19.013 14.188-14.633 13.398-10.004 12.878-7.813 11.027-8.594 9.575-9.358 7.724-10.139 7.882-10.472 8.234-12.142 7.752-13.985 7.457-15.113 6.84-15.779 6.529-16.068 6.523-14.33 6.314-11.256 4.956-7.734 3.432-3.78 1.221-1.236 0 0Z"/>
<path transform="matrix(1,0,0,-1,279.9551,543.8875)" d="M0 0C.472-.025 1.462-.013 2.553 .511 3.61 1.018 4.23 1.749 4.511 2.128 4.832 3.862 4.466 5.67 4.085 6.979 3.844 7.805-1.702 13.532-8.893 17.107-13.854 19.573-20.634 22.035-28.766 24.511-28.65 21.741-27.572 17.185-25.447 11.745-22.811 4.998-17.462 1.621-15.064 0-15.867-.152-18.401-.525-21.106 .851-23.427 2.031-24.595 3.848-25.021 4.596L-38.383-.851C-33.957-5.277-24.17-11.574-14.298-11.574-6.213-11.574-.677-1.31 0 0" fill="#b2d4d1"/>
<path transform="matrix(1,0,0,-1,279.9551,543.8875)" stroke-width=".5" stroke-linecap="butt" stroke-miterlimit="10" stroke-linejoin="miter" fill="none" stroke="#b2d4d1" d="M0 0C.472-.025 1.462-.013 2.553 .511 3.61 1.018 4.23 1.749 4.511 2.128 4.832 3.862 4.466 5.67 4.085 6.979 3.844 7.805-1.702 13.532-8.893 17.107-13.854 19.573-20.634 22.035-28.766 24.511-28.65 21.741-27.572 17.185-25.447 11.745-22.811 4.998-17.462 1.621-15.064 0-15.867-.152-18.401-.525-21.106 .851-23.427 2.031-24.595 3.848-25.021 4.596L-38.383-.851C-33.957-5.277-24.17-11.574-14.298-11.574-6.213-11.574-.677-1.31 0 0Z"/>
<path transform="matrix(1,0,0,-1,242.5685,514.4331)" d="M0 0C.411-.095 1.283-.238 2.324 .052 3.332 .333 3.991 .88 4.297 1.169 4.849 2.644 4.809 4.29 4.677 5.5 4.594 6.264 .609 12.162-5.157 16.423-9.135 19.364-14.713 22.583-21.477 26.025-21.806 23.572-21.567 19.398-20.545 14.285-19.277 7.943-15.1 4.141-13.244 2.344-13.974 2.335-16.259 2.401-18.424 4.032-20.281 5.431-21.025 7.21-21.283 7.933L-33.878 5.223C-30.676 .644-23.051-6.416-14.371-7.952-7.263-9.209-.799-1.047 0 0" fill="#b2d4d1"/>
<path transform="matrix(1,0,0,-1,242.5685,514.4331)" stroke-width=".5" stroke-linecap="butt" stroke-miterlimit="10" stroke-linejoin="miter" fill="none" stroke="#b2d4d1" d="M0 0C.411-.095 1.283-.238 2.324 .052 3.332 .333 3.991 .88 4.297 1.169 4.849 2.644 4.809 4.29 4.677 5.5 4.594 6.264 .609 12.162-5.157 16.423-9.135 19.364-14.713 22.583-21.477 26.025-21.806 23.572-21.567 19.398-20.545 14.285-19.277 7.943-15.1 4.141-13.244 2.344-13.974 2.335-16.259 2.401-18.424 4.032-20.281 5.431-21.025 7.21-21.283 7.933L-33.878 5.223C-30.676 .644-23.051-6.416-14.371-7.952-7.263-9.209-.799-1.047 0 0Z"/>
<path transform="matrix(1,0,0,-1,213.6539,481.86064)" d="M0 0C.349-.146 1.1-.403 2.065-.302 2.999-.204 3.664 .181 3.977 .392 4.687 1.614 4.897 3.077 4.962 4.168 5.003 4.856 2.358 10.672-2.107 15.306-5.187 18.503-9.642 22.186-15.114 26.244-15.772 24.122-16.185 20.393-16.045 15.715-15.871 9.913-12.92 5.382-11.547 3.514-12.194 3.615-14.03 4.557-15.701 6.324-17.135 7.84-17.528 8.234-17.648 8.913L-29.199 8.399C-27.051 3.867-21.636-3.276-14.185-5.933-8.083-8.11-.863-.807 0 0" fill="#b2d4d1"/>
<path transform="matrix(1,0,0,-1,213.6539,481.86064)" stroke-width=".5" stroke-linecap="butt" stroke-miterlimit="10" stroke-linejoin="miter" fill="none" stroke="#b2d4d1" d="M0 0C.349-.146 1.1-.403 2.065-.302 2.999-.204 3.664 .181 3.977 .392 4.687 1.614 4.897 3.077 4.962 4.168 5.003 4.856 2.358 10.672-2.107 15.306-5.187 18.503-9.642 22.186-15.114 26.244-15.772 24.122-16.185 20.393-16.045 15.715-15.871 9.913-12.92 5.382-11.547 3.514-12.194 3.615-14.03 4.557-15.701 6.324-17.135 7.84-17.528 8.234-17.648 8.913L-29.199 8.399C-27.051 3.867-21.636-3.276-14.185-5.933-8.083-8.11-.863-.807 0 0Z"/>
<path transform="matrix(1,0,0,-1,192.6576,448.94813)" d="M0 0C.299-.188 1.712-.717 2.615-.775 3.489-.83 3.936 .08 4.085 .34 4.702 1.58 4.846 3.335 4.766 4.34 4.715 4.981 4.595 9.265 1.214 14.221-1.119 17.639-4.639 21.719-9.035 26.301-9.971 24.454-10.932 21.091-11.533 16.77-12.278 11.41-10.272 6.786-9.301 4.854-9.88 5.049-11.42 6.201-12.681 8.085-13.763 9.702-14.062 10.125-14.067 10.768L-22.638 11.014C-21.37 6.515-19.632 .187-13.198-3.417-7.929-6.369-.919-.607 0 0" fill="#b2d4d1"/>
<path transform="matrix(1,0,0,-1,192.6576,448.94813)" stroke-width=".5" stroke-linecap="butt" stroke-miterlimit="10" stroke-linejoin="miter" fill="none" stroke="#b2d4d1" d="M0 0C.299-.188 1.712-.717 2.615-.775 3.489-.83 3.936 .08 4.085 .34 4.702 1.58 4.846 3.335 4.766 4.34 4.715 4.981 4.595 9.265 1.214 14.221-1.119 17.639-4.639 21.719-9.035 26.301-9.971 24.454-10.932 21.091-11.533 16.77-12.278 11.41-10.272 6.786-9.301 4.854-9.88 5.049-11.42 6.201-12.681 8.085-13.763 9.702-14.062 10.125-14.067 10.768L-22.638 11.014C-21.37 6.515-19.632 .187-13.198-3.417-7.929-6.369-.919-.607 0 0Z"/>
<path transform="matrix(1,0,0,-1,174.6922,390.72743)" d="M0 0C3.861-4.568 7.125-11.102 8.234-14.053 8.58-14.973 10.656-23.126 7.532-25.106 6.614-25.688 5.344-25.413 4.255-24.979 3.837-25.463 .726-28.96-3.404-28.468-5.975-28.162-7.616-26.467-8.936-25.064-12.955-20.792-13.678-15.405-13.83-12.809-11.121-13.078-8.411-13.348-5.702-13.617-5.783-14.037-6.135-16.112-4.809-18-3.997-19.156-2.94-19.694-2.426-19.915-3.076-17.987-3.968-14.512-3.532-10.17-3.043-5.295-1.124-1.763 0 0" fill="#b2d4d1"/>
<path transform="matrix(1,0,0,-1,174.6922,390.72743)" stroke-width=".5" stroke-linecap="butt" stroke-miterlimit="10" stroke-linejoin="miter" fill="none" stroke="#b2d4d1" d="M0 0C3.861-4.568 7.125-11.102 8.234-14.053 8.58-14.973 10.656-23.126 7.532-25.106 6.614-25.688 5.344-25.413 4.255-24.979 3.837-25.463 .726-28.96-3.404-28.468-5.975-28.162-7.616-26.467-8.936-25.064-12.955-20.792-13.678-15.405-13.83-12.809-11.121-13.078-8.411-13.348-5.702-13.617-5.783-14.037-6.135-16.112-4.809-18-3.997-19.156-2.94-19.694-2.426-19.915-3.076-17.987-3.968-14.512-3.532-10.17-3.043-5.295-1.124-1.763 0 0Z"/>
<path transform="matrix(1,0,0,-1,171.4462,360.7286)" d="M0 0C2.572-4.565 4.344-10.767 4.836-13.516 4.99-14.373 5.517-21.824 2.585-23.111 1.723-23.489 .694-23.064-.16-22.526-.585-22.89-3.735-25.509-7.145-24.481-9.268-23.841-10.397-22.118-11.3-20.696-14.049-16.369-13.85-11.539-13.588-9.24-11.344-9.867-9.099-10.495-6.854-11.122-6.985-11.479-7.594-13.248-6.758-15.096-6.247-16.227-5.436-16.852-5.035-17.119-5.294-15.334-5.525-12.157-4.506-8.412-3.361-4.206-1.212-1.385 0 0" fill="#b2d4d1"/>
<path transform="matrix(1,0,0,-1,171.4462,360.7286)" stroke-width=".5" stroke-linecap="butt" stroke-miterlimit="10" stroke-linejoin="miter" fill="none" stroke="#b2d4d1" d="M0 0C2.572-4.565 4.344-10.767 4.836-13.516 4.99-14.373 5.517-21.824 2.585-23.111 1.723-23.489 .694-23.064-.16-22.526-.585-22.89-3.735-25.509-7.145-24.481-9.268-23.841-10.397-22.118-11.3-20.696-14.049-16.369-13.85-11.539-13.588-9.24-11.344-9.867-9.099-10.495-6.854-11.122-6.985-11.479-7.594-13.248-6.758-15.096-6.247-16.227-5.436-16.852-5.035-17.119-5.294-15.334-5.525-12.157-4.506-8.412-3.361-4.206-1.212-1.385 0 0Z"/>
<path transform="matrix(1,0,0,-1,172.7565,331.26933)" d="M0 0C1.627-4.594 2.356-10.7 2.427-13.382 2.449-14.219 1.947-21.427-.741-22.433-1.531-22.728-2.362-22.238-3.028-21.653-3.441-21.97-6.487-24.24-9.289-22.982-11.033-22.199-11.784-20.452-12.379-19.013-14.188-14.633-13.398-10.004-12.878-7.813-11.027-8.594-9.575-9.358-7.724-10.139-7.882-10.472-8.234-12.142-7.752-13.985-7.457-15.113-6.84-15.779-6.529-16.068-6.523-14.33-6.314-11.256-4.956-7.734-3.432-3.78-1.221-1.236 0 0" fill="#b2d4d1"/>
<path transform="matrix(1,0,0,-1,172.7565,331.26933)" stroke-width=".5" stroke-linecap="butt" stroke-miterlimit="10" stroke-linejoin="miter" fill="none" stroke="#b2d4d1" d="M0 0C1.627-4.594 2.356-10.7 2.427-13.382 2.449-14.219 1.947-21.427-.741-22.433-1.531-22.728-2.362-22.238-3.028-21.653-3.441-21.97-6.487-24.24-9.289-22.982-11.033-22.199-11.784-20.452-12.379-19.013-14.188-14.633-13.398-10.004-12.878-7.813-11.027-8.594-9.575-9.358-7.724-10.139-7.882-10.472-8.234-12.142-7.752-13.985-7.457-15.113-6.84-15.779-6.529-16.068-6.523-14.33-6.314-11.256-4.956-7.734-3.432-3.78-1.221-1.236 0 0Z"/>
</g>
</g>
<g inkscape:groupmode="layer" inkscape:label="Layer 4">
<g clip-path="url(#clip_1)">
<path transform="matrix(1,0,0,-1,355.8997,354.33183)" d="M0 0C-4.28-1.75-8.21-2.82-11.49-3.49-10.43-4.84-8.94-6.49-6.89-8.08-4.36-10.05-1.9-11.22-.08-11.91H-65.51L-65.48 51.66H-65.45C-54.66 43.51-36.99 32.32-12.85 25.79 2.44 21.66 16.08 20.54 26.64 20.51 25.74 18.85 24.53 16.91 22.9 14.9 21.43 13.09 19.95 11.62 18.64 10.47 11.72 10.52 2.85 11.23-7.15 13.71-19.07 16.66-28.53 21.12-35.23 24.94-31.22 21.25-25.43 16.7-17.7 12.85-9.56 8.8-2.48 7.11 1.19 6.39 4.73 5.69 7.78 5.36 10.04 5.2 7.35 3.49 4 1.64 0 0" fill="#3d5073"/>
<path transform="matrix(1,0,0,-1,355.8997,354.33183)" stroke-width=".2" stroke-linecap="butt" stroke-miterlimit="10" stroke-linejoin="miter" fill="none" stroke="#3d5073" d="M0 0C-4.28-1.75-8.21-2.82-11.49-3.49-10.43-4.84-8.94-6.49-6.89-8.08-4.36-10.05-1.9-11.22-.08-11.91H-65.51L-65.48 51.66H-65.45C-54.66 43.51-36.99 32.32-12.85 25.79 2.44 21.66 16.08 20.54 26.64 20.51 25.74 18.85 24.53 16.91 22.9 14.9 21.43 13.09 19.95 11.62 18.64 10.47 11.72 10.52 2.85 11.23-7.15 13.71-19.07 16.66-28.53 21.12-35.23 24.94-31.22 21.25-25.43 16.7-17.7 12.85-9.56 8.8-2.48 7.11 1.19 6.39 4.73 5.69 7.78 5.36 10.04 5.2 7.35 3.49 4 1.64 0 0Z"/>
<path transform="matrix(1,0,0,-1,214.7782,349.1736)" d="M0 0C2.26 .16 5.31 .49 8.85 1.19 12.52 1.91 19.6 3.6 27.74 7.65 35.47 11.5 41.26 16.05 45.27 19.74 38.57 15.92 29.11 11.46 17.19 8.51 7.19 6.03-1.68 5.32-8.6 5.27-9.91 6.42-11.39 7.89-12.86 9.7-14.49 11.71-15.7 13.65-16.6 15.31-6.04 15.34 7.6 16.46 22.89 20.59 47.03 27.12 64.7 38.31 75.49 46.46H75.52L75.55-17.11H10.12C11.94-16.42 14.4-15.25 16.93-13.28 18.98-11.69 20.47-10.04 21.53-8.69 18.25-8.02 14.32-6.95 10.04-5.2 6.04-3.56 2.69-1.71 0 0" fill="#1e2e51"/>
<path transform="matrix(1,0,0,-1,214.7782,349.1736)" stroke-width=".2" stroke-linecap="butt" stroke-miterlimit="10" stroke-linejoin="miter" fill="none" stroke="#1e2e51" d="M0 0C2.26 .16 5.31 .49 8.85 1.19 12.52 1.91 19.6 3.6 27.74 7.65 35.47 11.5 41.26 16.05 45.27 19.74 38.57 15.92 29.11 11.46 17.19 8.51 7.19 6.03-1.68 5.32-8.6 5.27-9.91 6.42-11.39 7.89-12.86 9.7-14.49 11.71-15.7 13.65-16.6 15.31-6.04 15.34 7.6 16.46 22.89 20.59 47.03 27.12 64.7 38.31 75.49 46.46H75.52L75.55-17.11H10.12C11.94-16.42 14.4-15.25 16.93-13.28 18.98-11.69 20.47-10.04 21.53-8.69 18.25-8.02 14.32-6.95 10.04-5.2 6.04-3.56 2.69-1.71 0 0Z"/>
<path transform="matrix(1,0,0,-1,290.3187,499.9478)" d="M0 0C10.95 5.69 27.02 15.72 42.41 32.51 59.65 51.33 68.53 70.45 73.05 82.56H86.16C81.47 68.86 71.95 46.64 52.63 24.51 33.45 2.56 12.89-9.83 0-16.34-.01-16.34-.01 .01 0 0" fill="#3d5073"/>
<path transform="matrix(1,0,0,-1,290.3187,499.9478)" stroke-width=".2" stroke-linecap="butt" stroke-miterlimit="10" stroke-linejoin="miter" fill="none" stroke="#3d5073" d="M0 0C10.95 5.69 27.02 15.72 42.41 32.51 59.65 51.33 68.53 70.45 73.05 82.56H86.16C81.47 68.86 71.95 46.64 52.63 24.51 33.45 2.56 12.89-9.83 0-16.34-.01-16.34-.01 .01 0 0Z"/>
<path transform="matrix(1,0,0,-1,290.3037,516.2879)" d="M0 0C-12.89 6.51-33.45 18.9-52.63 40.85-71.95 62.98-81.47 85.2-86.16 98.9H-73.05C-68.53 86.79-59.65 67.67-42.41 48.85-27.02 32.06-10.95 22.03 0 16.34 .01 16.35 .01 0 0 0" fill="#1e2e51"/>
<path transform="matrix(1,0,0,-1,290.3037,516.2879)" stroke-width=".2" stroke-linecap="butt" stroke-miterlimit="10" stroke-linejoin="miter" fill="none" stroke="#1e2e51" d="M0 0C-12.89 6.51-33.45 18.9-52.63 40.85-71.95 62.98-81.47 85.2-86.16 98.9H-73.05C-68.53 86.79-59.65 67.67-42.41 48.85-27.02 32.06-10.95 22.03 0 16.34 .01 16.35 .01 0 0 0Z"/>
<path transform="matrix(1,0,0,-1,290.3517,417.38783)" d="M0 0V-8.43C.01-8.43 .02-8.44 .03-8.44 3.66-6.91 9.72-4.89 17.43-4.8 26.79-4.7 33.96-7.48 37.73-9.27L24.39-48.65C22.37-47.51 18.33-45.6 12.89-45.4H12.84C10.56-45.32 8.53-45.56 6.82-45.92 5.24-46.25 3.92-46.68 2.94-47.06 2.91-47.31 2.81-48.33 1.96-49.09 1.34-49.65 .62-49.76 .33-49.8H.01C.02-62.52 .02-72.69 .03-72.69 11.25-66.74 27.3-56.55 42.78-39.83 56.31-25.23 64.72-10.7 69.85 0Z" fill="#3d5073"/>
<path transform="matrix(1,0,0,-1,290.3517,417.38783)" stroke-width=".2" stroke-linecap="butt" stroke-miterlimit="10" stroke-linejoin="miter" fill="none" stroke="#3d5073" d="M0 0V-8.43C.01-8.43 .02-8.44 .03-8.44 3.66-6.91 9.72-4.89 17.43-4.8 26.79-4.7 33.96-7.48 37.73-9.27L24.39-48.65C22.37-47.51 18.33-45.6 12.89-45.4H12.84C10.56-45.32 8.53-45.56 6.82-45.92 5.24-46.25 3.92-46.68 2.94-47.06 2.91-47.31 2.81-48.33 1.96-49.09 1.34-49.65 .62-49.76 .33-49.8H.01C.02-62.52 .02-72.69 .03-72.69 11.25-66.74 27.3-56.55 42.78-39.83 56.31-25.23 64.72-10.7 69.85 0H0Z"/>
<path transform="matrix(1,0,0,-1,220.4805,417.38783)" d="M0 0C5.13-10.7 13.54-25.23 27.07-39.83 42.55-56.55 58.6-66.74 69.82-72.69 69.83-72.69 69.83-62.52 69.84-49.8H69.52C69.23-49.76 68.51-49.65 67.89-49.09 67.04-48.33 66.94-47.31 66.91-47.06 65.93-46.68 64.61-46.25 63.03-45.92 61.32-45.56 59.29-45.32 57.01-45.4H56.96C51.52-45.6 47.48-47.51 45.46-48.65L32.12-9.27C35.89-7.48 43.06-4.7 52.42-4.8 60.13-4.89 66.19-6.91 69.82-8.44 69.83-8.44 69.84-8.43 69.85-8.43V0Z" fill="#1e2e51"/>
<path transform="matrix(1,0,0,-1,220.4805,417.38783)" stroke-width=".2" stroke-linecap="butt" stroke-miterlimit="10" stroke-linejoin="miter" fill="none" stroke="#1e2e51" d="M0 0C5.13-10.7 13.54-25.23 27.07-39.83 42.55-56.55 58.6-66.74 69.82-72.69 69.83-72.69 69.83-62.52 69.84-49.8H69.52C69.23-49.76 68.51-49.65 67.89-49.09 67.04-48.33 66.94-47.31 66.91-47.06 65.93-46.68 64.61-46.25 63.03-45.92 61.32-45.56 59.29-45.32 57.01-45.4H56.96C51.52-45.6 47.48-47.51 45.46-48.65L32.12-9.27C35.89-7.48 43.06-4.7 52.42-4.8 60.13-4.89 66.19-6.91 69.82-8.44 69.83-8.44 69.84-8.43 69.85-8.43V0H0Z"/>
<path transform="matrix(1,0,0,-1,289.2967,427.8872)" d="M0 0V-33.2C-1.97-32.53-5.15-31.71-9.13-31.86-12.91-31.99-15.91-32.94-17.79-33.71L-29.11-.58C-26.08 .74-20.74 2.61-13.85 2.61-7.77 2.61-2.94 1.15 0 0" fill="#f0dcb2"/>
<path transform="matrix(1,0,0,-1,289.2967,427.8872)" stroke-width=".2" stroke-linecap="butt" stroke-miterlimit="10" stroke-linejoin="miter" fill="none" stroke="#f0dcb2" d="M0 0V-33.2C-1.97-32.53-5.15-31.71-9.13-31.86-12.91-31.99-15.91-32.94-17.79-33.71L-29.11-.58C-26.08 .74-20.74 2.61-13.85 2.61-7.77 2.61-2.94 1.15 0 0Z"/>
<path transform="matrix(1,0,0,-1,320.5168,428.4671)" d="M0 0-11.31-33.13C-13.2-32.36-16.19-31.41-19.98-31.28-23.95-31.13-27.14-31.95-29.1-32.62V.58C-26.16 1.73-21.34 3.19-15.25 3.19-8.37 3.19-3.02 1.32 0 0" fill="#d3aa4d"/>
<path transform="matrix(1,0,0,-1,320.5168,428.4671)" stroke-width=".2" stroke-linecap="butt" stroke-miterlimit="10" stroke-linejoin="miter" fill="none" stroke="#d9a55a" d="M0 0-11.31-33.13C-13.2-32.36-16.19-31.41-19.98-31.28-23.95-31.13-27.14-31.95-29.1-32.62V.58C-26.16 1.73-21.34 3.19-15.25 3.19-8.37 3.19-3.02 1.32 0 0Z"/>
<path transform="matrix(1,0,0,-1,280.386,319.83515)" d="M0 0-7.791-14.622 .783-30.363H19.016L28.452-14.663 19.016 .936 .675 0" fill="#1d2742"/>
</g>
</g>
<g inkscape:groupmode="layer" inkscape:label="Layer 3">
<g clip-path="url(#clip_2)">
<path transform="matrix(1,0,0,-1,302.0644,341.20103)" d="M0 0C-2.25-4.15-1.31-5.99-3.23-7.18-5.26-8.43-6.67-6.61-11.61-6.73H-11.67C-16.4-6.87-17.52-8.6-19.51-7.53-21.62-6.4-20.72-4.25-23.35 0-25.82 4.02-27.88 4.14-27.95 6.39-28.03 8.79-25.72 9.08-23.35 13.48-21.1 17.64-22.04 19.48-20.12 20.67-18.08 21.93-16.67 20.07-11.67 20.22H-11.61C-6.94 20.38-5.82 22.08-3.84 21.02-1.72 19.88-2.63 17.73 0 13.48 2.48 9.46 4.54 9.35 4.6 7.09 4.68 4.69 2.37 4.4 0 0M2.55 14.96C-.64 20.14 .46 22.76-2.12 24.14-4.53 25.45-5.91 23.36-11.61 23.17H-11.67C-17.76 22.99-19.48 25.26-21.97 23.72-24.31 22.27-23.17 20.03-25.9 14.96-28.8 9.59-31.61 9.24-31.52 6.32-31.45 3.93-29.56 3.51-27.09 .26H-27.08C-26.7-.24-26.3-.81-25.9-1.47-22.99-6.21-23.65-8.8-21.83-10.27-21.65-10.41-21.46-10.54-21.23-10.66-18.81-11.96-17.43-9.86-11.67-9.69H-11.61C-5.67-9.52-3.92-11.7-1.5-10.3-1.46-10.29-1.42-10.26-1.38-10.24 .96-8.79-.18-6.54 2.55-1.47 2.87-.87 3.2-.33 3.52 .15 6.04 4 8.26 4.58 8.17 7.17 8.09 9.92 5.58 10.06 2.55 14.96" fill="#ffffff"/>
<path transform="matrix(1,0,0,-1,302.0644,341.20103)" stroke-width=".25" stroke-linecap="butt" stroke-miterlimit="10" stroke-linejoin="miter" fill="none" stroke="#ffffff" d="M0 0C-2.25-4.15-1.31-5.99-3.23-7.18-5.26-8.43-6.67-6.61-11.61-6.73H-11.67C-16.4-6.87-17.52-8.6-19.51-7.53-21.62-6.4-20.72-4.25-23.35 0-25.82 4.02-27.88 4.14-27.95 6.39-28.03 8.79-25.72 9.08-23.35 13.48-21.1 17.64-22.04 19.48-20.12 20.67-18.08 21.93-16.67 20.07-11.67 20.22H-11.61C-6.94 20.38-5.82 22.08-3.84 21.02-1.72 19.88-2.63 17.73 0 13.48 2.48 9.46 4.54 9.35 4.6 7.09 4.68 4.69 2.37 4.4 0 0ZM2.55 14.96C-.64 20.14 .46 22.76-2.12 24.14-4.53 25.45-5.91 23.36-11.61 23.17H-11.67C-17.76 22.99-19.48 25.26-21.97 23.72-24.31 22.27-23.17 20.03-25.9 14.96-28.8 9.59-31.61 9.24-31.52 6.32-31.45 3.93-29.56 3.51-27.09 .26H-27.08C-26.7-.24-26.3-.81-25.9-1.47-22.99-6.21-23.65-8.8-21.83-10.27-21.65-10.41-21.46-10.54-21.23-10.66-18.81-11.96-17.43-9.86-11.67-9.69H-11.61C-5.67-9.52-3.92-11.7-1.5-10.3-1.46-10.29-1.42-10.26-1.38-10.24 .96-8.79-.18-6.54 2.55-1.47 2.87-.87 3.2-.33 3.52 .15 6.04 4 8.26 4.58 8.17 7.17 8.09 9.92 5.58 10.06 2.55 14.96Z"/>
<path transform="matrix(1,0,0,-1,298.5112,334.4576)" d="M0 0C0-4.529-3.671-8.2-8.2-8.2-12.729-8.2-16.4-4.529-16.4 0-16.4 4.529-12.729 8.2-8.2 8.2-3.671 8.2 0 4.529 0 0" fill="#ffffff"/>
<path transform="matrix(1,0,0,-1,298.5112,334.4576)" stroke-width=".25" stroke-linecap="butt" stroke-miterlimit="10" stroke-linejoin="miter" fill="none" stroke="#ffffff" d="M0 0C0-4.529-3.671-8.2-8.2-8.2-12.729-8.2-16.4-4.529-16.4 0-16.4 4.529-12.729 8.2-8.2 8.2-3.671 8.2 0 4.529 0 0Z"/>
<path transform="matrix(1,0,0,-1,313,436.4457)" d="M0 0C-2.266 .755-5.433 1.325-9.277 1.518-13.265 1.719-16.604 1.427-18.979 .872V2.766C-16.571 3.327-13.19 3.627-9.149 3.433-5.107 3.24-1.79 2.619 .553 1.83Z" fill="#1f263f"/>
<path transform="matrix(1,0,0,-1,313,436.4457)" stroke-width=".2" stroke-linecap="butt" stroke-miterlimit="10" stroke-linejoin="miter" fill="none" stroke="#1f263f" d="M0 0C-2.266 .755-5.433 1.325-9.277 1.518-13.265 1.719-16.604 1.427-18.979 .872V2.766C-16.571 3.327-13.19 3.627-9.149 3.433-5.107 3.24-1.79 2.619 .553 1.83L0 0Z"/>
<path transform="matrix(1,0,0,-1,311.1766,442.3478)" d="M0 0C-2.048 .682-4.911 1.198-8.385 1.372-11.991 1.554-15.009 1.29-17.155 .789V2.5C-14.979 3.008-11.922 3.278-8.27 3.103-4.616 2.928-1.618 2.367 .5 1.654Z" fill="#1f263f"/>
<path transform="matrix(1,0,0,-1,311.1766,442.3478)" stroke-width=".2" stroke-linecap="butt" stroke-miterlimit="10" stroke-linejoin="miter" fill="none" stroke="#1f263f" d="M0 0C-2.048 .682-4.911 1.198-8.385 1.372-11.991 1.554-15.009 1.29-17.155 .789V2.5C-14.979 3.008-11.922 3.278-8.27 3.103-4.616 2.928-1.618 2.367 .5 1.654L0 0Z"/>
<path transform="matrix(1,0,0,-1,309.7152,447.55213)" d="M0 0C-1.867 .622-4.476 1.091-7.642 1.251-10.928 1.416-13.679 1.176-15.635 .719V2.279C-13.652 2.741-10.866 2.988-7.537 2.828-4.207 2.669-1.474 2.158 .456 1.507Z" fill="#1f263f"/>
<path transform="matrix(1,0,0,-1,309.7152,447.55213)" stroke-width=".2" stroke-linecap="butt" stroke-miterlimit="10" stroke-linejoin="miter" fill="none" stroke="#1f263f" d="M0 0C-1.867 .622-4.476 1.091-7.642 1.251-10.928 1.416-13.679 1.176-15.635 .719V2.279C-13.652 2.741-10.866 2.988-7.537 2.828-4.207 2.669-1.474 2.158 .456 1.507L0 0Z"/>
<path transform="matrix(1,0,0,-1,294.0213,450.083)" d="M0 0V-2.021C1.137-1.72 2.499-1.445 4.05-1.297 5.687-1.14 7.147-1.162 8.366-1.255V.532C7.098 .664 5.573 .726 3.855 .596 2.395 .485 1.1 .259 0 0" fill="#1f263f"/>
<path transform="matrix(1,0,0,-1,294.0213,450.083)" stroke-width=".2" stroke-linecap="butt" stroke-miterlimit="10" stroke-linejoin="miter" fill="none" stroke="#1f263f" d="M0 0V-2.021C1.137-1.72 2.499-1.445 4.05-1.297 5.687-1.14 7.147-1.162 8.366-1.255V.532C7.098 .664 5.573 .726 3.855 .596 2.395 .485 1.1 .259 0 0Z"/>
<path transform="matrix(1,0,0,-1,267.6107,436.5963)" d="M0 0C2.266 .755 5.433 1.325 9.277 1.518 13.265 1.719 16.604 1.427 18.979 .872V2.766C16.571 3.327 13.19 3.627 9.149 3.433 5.107 3.24 1.79 2.619-.553 1.83Z" fill="#1f263f"/>
<path transform="matrix(1,0,0,-1,267.6107,436.5963)" stroke-width=".2" stroke-linecap="butt" stroke-miterlimit="10" stroke-linejoin="miter" fill="none" stroke="#1f263f" d="M0 0C2.266 .755 5.433 1.325 9.277 1.518 13.265 1.719 16.604 1.427 18.979 .872V2.766C16.571 3.327 13.19 3.627 9.149 3.433 5.107 3.24 1.79 2.619-.553 1.83L0 0Z"/>
<path transform="matrix(1,0,0,-1,269.4342,442.4984)" d="M0 0C2.048 .682 4.911 1.198 8.385 1.372 11.991 1.554 15.009 1.29 17.155 .789V2.5C14.979 3.008 11.922 3.278 8.27 3.103 4.616 2.928 1.618 2.367-.5 1.654Z" fill="#1f263f"/>
<path transform="matrix(1,0,0,-1,269.4342,442.4984)" stroke-width=".2" stroke-linecap="butt" stroke-miterlimit="10" stroke-linejoin="miter" fill="none" stroke="#1f263f" d="M0 0C2.048 .682 4.911 1.198 8.385 1.372 11.991 1.554 15.009 1.29 17.155 .789V2.5C14.979 3.008 11.922 3.278 8.27 3.103 4.616 2.928 1.618 2.367-.5 1.654L0 0Z"/>
<path transform="matrix(1,0,0,-1,270.8955,447.70274)" d="M0 0C1.867 .622 4.476 1.091 7.642 1.251 10.928 1.416 13.679 1.176 15.635 .719V2.279C13.652 2.741 10.866 2.988 7.537 2.828 4.207 2.669 1.474 2.158-.456 1.507Z" fill="#1f263f"/>
<path transform="matrix(1,0,0,-1,270.8955,447.70274)" stroke-width=".2" stroke-linecap="butt" stroke-miterlimit="10" stroke-linejoin="miter" fill="none" stroke="#1f263f" d="M0 0C1.867 .622 4.476 1.091 7.642 1.251 10.928 1.416 13.679 1.176 15.635 .719V2.279C13.652 2.741 10.866 2.988 7.537 2.828 4.207 2.669 1.474 2.158-.456 1.507L0 0Z"/>
<path transform="matrix(1,0,0,-1,272.4117,452.9793)" d="M0 0C1.712 .592 4.105 1.04 7.009 1.192 10.023 1.35 12.546 1.121 14.34 .685V2.172C12.521 2.612 9.966 2.847 6.913 2.695 3.859 2.544 1.352 2.056-.418 1.437Z" fill="#1f263f"/>
<path transform="matrix(1,0,0,-1,272.4117,452.9793)" stroke-width=".2" stroke-linecap="butt" stroke-miterlimit="10" stroke-linejoin="miter" fill="none" stroke="#1f263f" d="M0 0C1.712 .592 4.105 1.04 7.009 1.192 10.023 1.35 12.546 1.121 14.34 .685V2.172C12.521 2.612 9.966 2.847 6.913 2.695 3.859 2.544 1.352 2.056-.418 1.437L0 0Z"/>
<path transform="matrix(1,0,0,-1,290.3112,328.6798)" d="M0 0 1.357-4.176H5.748L2.196-6.758 3.553-10.934 0-8.353-3.553-10.934-2.196-6.758-5.748-4.176H-1.357Z" fill="#1d2742"/>
<path transform="matrix(1,0,0,-1,290.3112,328.6798)" stroke-width=".25" stroke-linecap="butt" stroke-miterlimit="10" stroke-linejoin="miter" fill="none" stroke="#1d2743" d="M0 0 1.357-4.176H5.748L2.196-6.758 3.553-10.934 0-8.353-3.553-10.934-2.196-6.758-5.748-4.176H-1.357L0 0Z"/>
<path transform="matrix(1,0,0,-1,280.0117,351.63664)" d="M0 0-6.48-8.36-6.99-1.25-18.82-2.23C-18.82-2.23-5.33 10.53-5.26 10.53H-5.25C-4.87 10.03-4.47 9.46-4.07 8.8-1.16 4.06-1.82 1.47 0 0" fill="#b2d4d1"/>
<path transform="matrix(1,0,0,-1,280.0117,351.63664)" stroke-width=".25" stroke-linecap="butt" stroke-miterlimit="10" stroke-linejoin="miter" fill="none" stroke="#b2d4d1" d="M0 0-6.48-8.36-6.99-1.25-18.82-2.23C-18.82-2.23-5.33 10.53-5.26 10.53H-5.25C-4.87 10.03-4.47 9.46-4.07 8.8-1.16 4.06-1.82 1.47 0 0Z"/>
<path transform="matrix(1,0,0,-1,319.5838,353.94853)" d="M0 0-11.83 .98-12.35-6.13-18.8 2.2C-18.76 2.21-18.72 2.24-18.68 2.26-16.34 3.71-17.48 5.96-14.75 11.03-14.43 11.63-13.969 12.375-13.649 12.855L-13.56 12.76C-13.49 12.76 0 0 0 0" fill="#b2d4d1"/>
<path transform="matrix(1,0,0,-1,319.5838,353.94853)" stroke-width=".25" stroke-linecap="butt" stroke-miterlimit="10" stroke-linejoin="miter" fill="none" stroke="#b2d4d1" d="M0 0-11.83 .98-12.35-6.13-18.8 2.2C-18.76 2.21-18.72 2.24-18.68 2.26-16.34 3.71-17.48 5.96-14.75 11.03-14.43 11.63-13.969 12.375-13.649 12.855L-13.56 12.76C-13.49 12.76 0 0 0 0Z"/>
<path transform="matrix(1,0,0,-1,284.4535,473.30363)" d="M0 0-3.15 2.6-7.57-1.78-6.75 10.45H-6.7C-4.42 10.53-2.39 10.29-.68 9.93Z" fill="#212940"/>
<path transform="matrix(1,0,0,-1,284.4535,473.30363)" stroke-width=".2" stroke-linecap="butt" stroke-miterlimit="10" stroke-linejoin="miter" fill="none" stroke="#1c2740" d="M0 0-3.15 2.6-7.57-1.78-6.75 10.45H-6.7C-4.42 10.53-2.39 10.29-.68 9.93L0 0Z"/>
<path transform="matrix(1,0,0,-1,209.5223,398.3728)" d="M0 0V14.638H6.344V11.562H3.584V9.585H6.25V6.508H3.584V3.076H6.344V0Z" fill="#cfd7d6"/>
<path transform="matrix(1,0,0,-1,210.0269,397.86824)" d="M0 0V13.629H5.335V11.562H2.574V8.575H5.241V6.508H2.574V2.067H5.335V0Z" fill="#cfd7d6"/>
<path transform="matrix(1,0,0,-1,219.991,395.36833)" d="M0 0C.295 .094 .356 .394 .356 1.348V6.956C.356 8.234 .356 8.561 0 8.643ZM-3.584-3.005V11.634H-.427C2.652 11.634 3.939 10.917 3.939 6.478V1.615C3.939-1.158 3.197-3.005-.427-3.005Z" fill="#cfd7d6"/>
<path transform="matrix(1,0,0,-1,219.4864,395.9158)" d="M0 0C1.257 0 1.365 .593 1.365 1.895V7.504C1.365 9.322 1.303 9.724 0 9.724ZM-2.574 11.676H.078C2.963 11.676 3.939 11.102 3.939 7.025V2.163C3.939-.421 3.318-1.952 .078-1.952H-2.574Z" fill="#cfd7d6"/>
<path transform="matrix(1,0,0,-1,228.4659,398.6409)" d="M0 0C-3.745 0-3.745 3.479-3.745 4.965V14.906H-.162V4.582C-.162 4.08-.162 3.321-.031 3.188 .193 3.317 .193 4.078 .193 4.582V14.906H3.777V4.658C3.724 2.234 3.232 0 0 0" fill="#cfd7d6"/>
<path transform="matrix(1,0,0,-1,231.738,393.98274)" d="M0 0C-.062-2.89-.868-4.154-3.272-4.154-6.451-4.154-6.513-1.416-6.513 .307V9.743H-3.938V-.076C-3.938-1.167-3.938-1.972-3.272-1.972-2.574-1.972-2.574-1.167-2.574-.076V9.743H0Z" fill="#cfd7d6"/>
<path transform="matrix(1,0,0,-1,233.0015,398.3728)" d="M0 0V14.638H6.344V11.562H3.584V9.585H6.251V6.508H3.584V0Z" fill="#cfd7d6"/>
<path transform="matrix(1,0,0,-1,233.5061,397.86824)" d="M0 0V13.629H5.335V11.562H2.574V8.575H5.242V6.508H2.574V0Z" fill="#cfd7d6"/>
<path transform="matrix(1,0,0,-1,0,841.89)" d="M239.841 458.155H243.425V443.517H239.841Z" fill="#cfd7d6"/>
<path transform="matrix(1,0,0,-1,0,841.89)" d="M240.346 457.651H242.92V444.022H240.346Z" fill="#cfd7d6"/>
<path transform="matrix(1,0,0,-1,248.2442,398.3728)" d="M0 0-.49 3.025-1.023 0H-4.411L-2.755 7.809-4.414 14.638H-.537L-.071 11.782 .387 14.638H3.79L2.141 7.375 3.789 0Z" fill="#cfd7d6"/>
<path transform="matrix(1,0,0,-1,246.7974,397.86824)" d="M0 0H-2.342L-.79 7.312-2.326 13.629H.481L1.365 8.212H1.396L2.264 13.629H4.606L3.07 6.872 4.606 0H1.877L.992 5.455H.962Z" fill="#cfd7d6"/>
<path transform="matrix(1,0,0,-1,263.7846,398.90803)" d="M0 0C-1.4 0-3.746 .583-3.746 4.486V10.688C-3.746 14.591-1.4 15.174 0 15.174 2.576 15.174 3.777 13.858 3.777 11.032V9.035H.193V11.415C.193 11.792 .128 11.983 0 11.983-.155 11.983-.163 11.51-.163 11.415V3.759C-.163 3.664-.155 3.191 0 3.191 .128 3.191 .193 3.382 .193 3.759L.212 6.58H3.777V4.275C3.777 .742 1.723 0 0 0" fill="#cfd7d6"/>
<path transform="matrix(1,0,0,-1,267.0567,392.833)" d="M0 0V-1.8C0-4.345-1.101-5.57-3.272-5.57-4.978-5.57-6.514-4.709-6.514-1.589V4.613C-6.514 7.733-4.978 8.595-3.272 8.595-1.396 8.595 0 7.905 0 4.957V3.464H-2.574V5.34C-2.574 5.896-2.714 6.412-3.272 6.412-3.799 6.412-3.939 5.896-3.939 5.34V-2.316C-3.939-2.871-3.799-3.388-3.272-3.388-2.714-3.388-2.574-2.871-2.574-2.316L-2.559 0Z" fill="#cfd7d6"/>
<path transform="matrix(1,0,0,-1,272.5039,398.63993)" d="M0 0-.295 3.35H-.784L-1.201 0H-4.397L-2.381 14.638H2.048L3.581 0Z" fill="#cfd7d6"/>
<path transform="matrix(1,0,0,-1,272.4852,392.7182)" d="M0 0-.45 6.068H-.481L-.93 0ZM1.612 8.212 3.039-5.417H.481L.186-2.067H-1.21L-1.628-5.417H-3.799L-1.923 8.212Z" fill="#cfd7d6"/>
<path transform="matrix(1,0,0,-1,280.216,389.41703)" d="M0 0C.264 .087 .34 .359 .34 1.216 .34 2.056 .282 2.326 0 2.413ZM.921-9.223 .777-8.965C.416-8.32 .34-7.444 .34-6.823V-3.933C.34-3.39 .162-3.1 0-3.023V-9.223H-3.584V5.415H-.489C1.925 5.415 3.924 5.138 3.924 1.733 3.924 .344 3.561-.658 2.843-1.263 3.575-1.718 3.924-2.607 3.924-3.971V-6.823C3.924-7.493 4.045-8.109 4.248-8.472L4.668-9.223Z" fill="#cfd7d6"/>
<path transform="matrix(1,0,0,-1,279.7114,389.962)" d="M0 0C1.163 0 1.349 .478 1.349 1.761 1.349 3.025 1.179 3.503 0 3.503ZM-2.574-8.173V5.456H.016C2.466 5.456 3.924 5.149 3.924 2.278 3.924 .575 3.35-.536 1.954-.823V-.861C3.195-.899 3.924-1.474 3.924-3.426V-6.278C3.924-6.814 4.001-7.618 4.312-8.173H1.722C1.411-7.618 1.349-6.814 1.349-6.278V-3.388C1.349-2.431 .884-1.952 .419-1.952H0V-8.173Z" fill="#cfd7d6"/>
<path transform="matrix(1,0,0,-1,284.9457,398.63993)" d="M0 0V14.638H6.344V11.562H3.584V9.585H6.25V6.508H3.584V3.076H6.344V0Z" fill="#cfd7d6"/>
<path transform="matrix(1,0,0,-1,285.4503,398.1353)" d="M0 0V13.629H5.335V11.562H2.574V8.575H5.241V6.508H2.574V2.067H5.335V0Z" fill="#cfd7d6"/>
<path transform="matrix(1,0,0,-1,291.8003,398.63993)" d="M0 0V14.638H6.344V11.562H3.584V9.585H6.25V6.508H3.584V3.076H6.344V0Z" fill="#cfd7d6"/>
<path transform="matrix(1,0,0,-1,292.3049,398.1353)" d="M0 0V13.629H5.335V11.562H2.574V8.575H5.241V6.508H2.574V2.067H5.335V0Z" fill="#cfd7d6"/>
<path transform="matrix(1,0,0,-1,302.2385,389.41703)" d="M0 0C.264 .087 .34 .359 .34 1.216 .34 2.056 .282 2.326 0 2.413ZM.92-9.223 .776-8.964C.416-8.319 .34-7.443 .34-6.823V-3.933C.34-3.39 .162-3.1 0-3.023V-9.223H-3.584V5.415H-.489C1.925 5.415 3.924 5.138 3.924 1.733 3.924 .344 3.561-.658 2.842-1.263 3.575-1.718 3.924-2.606 3.924-3.971V-6.823C3.924-7.494 4.045-8.11 4.247-8.472L4.667-9.223Z" fill="#cfd7d6"/>
<path transform="matrix(1,0,0,-1,301.7339,389.962)" d="M0 0C1.163 0 1.349 .478 1.349 1.761 1.349 3.025 1.179 3.503 0 3.503ZM-2.574-8.173V5.456H.016C2.466 5.456 3.924 5.149 3.924 2.278 3.924 .575 3.349-.536 1.953-.823V-.861C3.194-.899 3.924-1.474 3.924-3.426V-6.278C3.924-6.814 4-7.618 4.311-8.173H1.721C1.411-7.618 1.349-6.814 1.349-6.278V-3.388C1.349-2.431 .884-1.952 .419-1.952H0V-8.173Z" fill="#cfd7d6"/>
<path transform="matrix(1,0,0,-1,319.1744,398.3728)" d="M0 0-.295 3.35H-.783L-1.201 0H-4.397L-2.381 14.638H2.049L3.581 0Z" fill="#cfd7d6"/>
<path transform="matrix(1,0,0,-1,319.1557,392.4511)" d="M0 0-.449 6.068H-.481L-.93 0ZM1.613 8.212 3.039-5.417H.481L.186-2.067H-1.209L-1.628-5.417H-3.799L-1.923 8.212Z" fill="#cfd7d6"/>
<path transform="matrix(1,0,0,-1,327.0806,398.6409)" d="M0 0C-1.399 0-3.745 .583-3.745 4.486V10.688C-3.745 14.591-1.399 15.174 0 15.174 2.576 15.174 3.777 13.858 3.777 11.032V9.035H.193V11.415C.193 11.983 .047 11.983 0 11.983-.154 11.983-.162 11.51-.162 11.415V3.759C-.162 3.664-.154 3.191 0 3.191 .047 3.191 .193 3.191 .193 3.759L.212 6.58H3.777V4.275C3.777 .742 1.723 0 0 0" fill="#cfd7d6"/>
<path transform="matrix(1,0,0,-1,330.3527,392.56593)" d="M0 0V-1.8C0-4.345-1.101-5.57-3.272-5.57-4.977-5.57-6.513-4.709-6.513-1.589V4.613C-6.513 7.733-4.977 8.595-3.272 8.595-1.396 8.595 0 7.905 0 4.957V3.464H-2.574V5.34C-2.574 5.896-2.713 6.412-3.272 6.412-3.799 6.412-3.938 5.896-3.938 5.34V-2.316C-3.938-2.871-3.799-3.388-3.272-3.388-2.713-3.388-2.574-2.871-2.574-2.316L-2.559 0Z" fill="#cfd7d6"/>
<path transform="matrix(1,0,0,-1,335.7999,398.3728)" d="M0 0-.295 3.35H-.784L-1.201 0H-4.397L-2.381 14.638H2.048L3.581 0Z" fill="#cfd7d6"/>
<path transform="matrix(1,0,0,-1,335.7812,392.4511)" d="M0 0-.45 6.068H-.481L-.93 0ZM1.612 8.212 3.039-5.417H.481L.186-2.067H-1.21L-1.628-5.417H-3.799L-1.923 8.212Z" fill="#cfd7d6"/>
<path transform="matrix(1,0,0,-1,343.5435,395.36833)" d="M0 0C.295 .094 .356 .394 .356 1.348V6.956C.356 8.234 .356 8.561 0 8.643ZM-3.584-3.005V11.634H-.427C2.652 11.634 3.939 10.917 3.939 6.478V1.615C3.939-1.158 3.197-3.005-.427-3.005Z" fill="#cfd7d6"/>
<path transform="matrix(1,0,0,-1,343.0389,395.9158)" d="M0 0C1.257 0 1.365 .593 1.365 1.895V7.504C1.365 9.322 1.303 9.724 0 9.724ZM-2.574 11.676H.078C2.963 11.676 3.939 11.102 3.939 7.025V2.163C3.939-.421 3.318-1.952 .078-1.952H-2.574Z" fill="#cfd7d6"/>
<path transform="matrix(1,0,0,-1,348.2417,398.3728)" d="M0 0V14.638H6.344V11.562H3.584V9.585H6.25V6.508H3.584V3.076H6.344V0Z" fill="#cfd7d6"/>
<path transform="matrix(1,0,0,-1,348.7463,397.86824)" d="M0 0V13.629H5.335V11.562H2.574V8.575H5.241V6.508H2.574V2.067H5.335V0Z" fill="#cfd7d6"/>
<path transform="matrix(1,0,0,-1,362.4782,398.3728)" d="M0 0V4.462L-.571 0H-3.723L-4.294 4.462V0H-7.366V14.638H-2.627L-1.976 8.84-1.327 14.638H3.335V0Z" fill="#cfd7d6"/>
<path transform="matrix(1,0,0,-1,357.6795,397.86824)" d="M0 0H-2.063V13.629H1.721L2.807 3.943H2.837L3.924 13.629H7.629V0H5.303V11.638H5.273L3.784 0H1.52L.031 11.638H0Z" fill="#cfd7d6"/>
<path transform="matrix(1,0,0,-1,368.5582,398.3728)" d="M0 0V5.457L-2.331 14.638H1.254L1.792 11.562 2.329 14.638H5.913L3.584 5.457V0Z" fill="#cfd7d6"/>
<path transform="matrix(1,0,0,-1,369.0628,392.8532)" d="M0 0-2.187 8.614H.325L1.271 3.197H1.302L2.248 8.614H4.76L2.574 0V-5.015H0Z" fill="#cfd7d6"/>
<path transform="matrix(1,0,0,-1,210.5838,397.0819)" d="M0 0V14.504H6.286V11.456H3.551V9.497H6.193V6.449H3.551V3.048H6.286V0Z" fill="#f5fbfb"/>
<path transform="matrix(1,0,0,-1,211.0838,396.5819)" d="M0 0V13.504H5.286V11.456H2.551V8.497H5.193V6.449H2.551V2.048H5.286V0Z" fill="#273048"/>
<path transform="matrix(1,0,0,-1,220.9568,394.10484)" d="M0 0C.292 .093 .353 .391 .353 1.335V6.893C.353 8.159 .353 8.482 0 8.564ZM-3.551-2.977V11.527H-.423C2.628 11.527 3.903 10.817 3.903 6.418V1.601C3.903-1.147 3.168-2.977-.423-2.977Z" fill="#f5fbfb"/>
<path transform="matrix(1,0,0,-1,220.4568,394.6473)" d="M0 0C1.245 0 1.353 .588 1.353 1.878V7.435C1.353 9.237 1.291 9.635 0 9.635ZM-2.551 11.57H.077C2.936 11.57 3.903 11 3.903 6.961V2.143C3.903-.417 3.288-1.935 .077-1.935H-2.551Z" fill="#273048"/>
<path transform="matrix(1,0,0,-1,229.3543,397.3475)" d="M0 0C-3.711 0-3.711 3.447-3.711 4.919V14.77H-.16V4.54C-.16 4.042-.16 3.291-.03 3.159 .191 3.287 .191 4.041 .191 4.54V14.77H3.742V4.616C3.69 2.213 3.202 0 0 0" fill="#f5fbfb"/>
<path transform="matrix(1,0,0,-1,232.5965,392.7318)" d="M0 0C-.062-2.864-.86-4.116-3.242-4.116-6.392-4.116-6.453-1.403-6.453 .304V9.654H-3.902V-.076C-3.902-1.157-3.902-1.954-3.242-1.954-2.551-1.954-2.551-1.157-2.551-.076V9.654H0Z" fill="#273048"/>
<path transform="matrix(1,0,0,-1,233.8484,397.0819)" d="M0 0V14.504H6.286V11.456H3.551V9.497H6.194V6.449H3.551V0Z" fill="#f5fbfb"/>
<path transform="matrix(1,0,0,-1,234.3484,396.5819)" d="M0 0V13.504H5.286V11.456H2.551V8.497H5.194V6.449H2.551V0Z" fill="#273048"/>
<path transform="matrix(1,0,0,-1,0,841.89)" d="M240.626 459.312H244.177V444.808H240.626Z" fill="#f5fbfb"/>
<path transform="matrix(1,0,0,-1,0,841.89)" d="M241.126 458.812H243.677V445.308H241.126Z" fill="#273048"/>
<path transform="matrix(1,0,0,-1,248.9519,397.0819)" d="M0 0-.485 2.998-1.014 0H-4.371L-2.729 7.738-4.374 14.504H-.532L-.07 11.675 .384 14.504H3.756L2.121 7.308 3.754 0Z" fill="#f5fbfb"/>
<path transform="matrix(1,0,0,-1,247.5183,396.5819)" d="M0 0H-2.32L-.783 7.245-2.305 13.504H.477L1.353 8.137H1.383L2.243 13.504H4.563L3.042 6.809 4.563 0H1.859L.983 5.405H.953Z" fill="#273048"/>
<path transform="matrix(1,0,0,-1,264.3503,397.6122)" d="M0 0C-1.387 0-3.712 .578-3.712 4.445V10.59C-3.712 14.458-1.387 15.036 0 15.036 2.553 15.036 3.742 13.731 3.742 10.932V8.952H.191V11.311C.191 11.684 .127 11.873 0 11.873-.153 11.873-.161 11.405-.161 11.311V3.725C-.161 3.631-.153 3.162 0 3.162 .127 3.162 .191 3.352 .191 3.725L.21 6.52H3.742V4.236C3.742 .735 1.707 0 0 0" fill="#f5fbfb"/>
<path transform="matrix(1,0,0,-1,267.5925,391.59263)" d="M0 0V-1.783C0-4.306-1.091-5.52-3.242-5.52-4.933-5.52-6.454-4.666-6.454-1.574V4.571C-6.454 7.663-4.933 8.516-3.242 8.516-1.383 8.516 0 7.833 0 4.912V3.433H-2.551V5.292C-2.551 5.842-2.689 6.354-3.242 6.354-3.765 6.354-3.903 5.842-3.903 5.292V-2.295C-3.903-2.845-3.765-3.357-3.242-3.357-2.689-3.357-2.551-2.845-2.551-2.295L-2.535 0Z" fill="#273048"/>
<path transform="matrix(1,0,0,-1,272.99,397.34654)" d="M0 0-.292 3.319H-.776L-1.19 0H-4.356L-2.359 14.504H2.029L3.548 0Z" fill="#f5fbfb"/>
<path transform="matrix(1,0,0,-1,272.9714,391.4789)" d="M0 0-.446 6.012H-.477L-.922 0ZM1.598 8.137 3.012-5.368H.477L.185-2.048H-1.199L-1.613-5.368H-3.765L-1.905 8.137Z" fill="#273048"/>
<path transform="matrix(1,0,0,-1,280.6316,388.20793)" d="M0 0C.262 .086 .337 .356 .337 1.205 .337 2.037 .279 2.305 0 2.391ZM.913-9.139 .77-8.883C.412-8.244 .337-7.376 .337-6.761V-3.897C.337-3.359 .16-3.071 0-2.995V-9.139H-3.551V5.366H-.484C1.907 5.366 3.888 5.091 3.888 1.717 3.888 .341 3.528-.652 2.817-1.252 3.542-1.703 3.888-2.583 3.888-3.935V-6.761C3.888-7.424 4.008-8.035 4.209-8.395L4.625-9.139Z" fill="#f5fbfb"/>
<path transform="matrix(1,0,0,-1,280.1316,388.74794)" d="M0 0C1.152 0 1.337 .474 1.337 1.745 1.337 2.997 1.168 3.471 0 3.471ZM-2.551-8.099V5.406H.016C2.443 5.406 3.888 5.102 3.888 2.257 3.888 .569 3.319-.531 1.937-.815V-.854C3.166-.891 3.888-1.46 3.888-3.395V-6.221C3.888-6.752 3.965-7.549 4.272-8.099H1.706C1.398-7.549 1.337-6.752 1.337-6.221V-3.357C1.337-2.409 .876-1.935 .415-1.935H0V-8.099Z" fill="#273048"/>
<path transform="matrix(1,0,0,-1,285.3181,397.34654)" d="M0 0V14.504H6.286V11.456H3.551V9.497H6.193V6.449H3.551V3.048H6.286V0Z" fill="#f5fbfb"/>
<path transform="matrix(1,0,0,-1,285.8181,396.84654)" d="M0 0V13.504H5.286V11.456H2.551V8.497H5.193V6.449H2.551V2.048H5.286V0Z" fill="#273048"/>
<path transform="matrix(1,0,0,-1,292.1101,397.34654)" d="M0 0V14.504H6.286V11.456H3.551V9.497H6.193V6.449H3.551V3.048H6.286V0Z" fill="#f5fbfb"/>
<path transform="matrix(1,0,0,-1,292.6101,396.84654)" d="M0 0V13.504H5.286V11.456H2.551V8.497H5.193V6.449H2.551V2.048H5.286V0Z" fill="#273048"/>
<path transform="matrix(1,0,0,-1,302.4529,388.20793)" d="M0 0C.262 .086 .337 .356 .337 1.205 .337 2.037 .279 2.305 0 2.391ZM.911-9.139 .769-8.882C.412-8.243 .337-7.375 .337-6.761V-3.897C.337-3.359 .16-3.071 0-2.995V-9.139H-3.551V5.366H-.484C1.907 5.366 3.888 5.091 3.888 1.717 3.888 .341 3.528-.652 2.816-1.252 3.542-1.703 3.888-2.583 3.888-3.935V-6.761C3.888-7.425 4.008-8.036 4.208-8.395L4.624-9.139Z" fill="#f5fbfb"/>
<path transform="matrix(1,0,0,-1,301.9529,388.74794)" d="M0 0C1.152 0 1.337 .474 1.337 1.745 1.337 2.997 1.168 3.471 0 3.471ZM-2.551-8.099V5.406H.016C2.443 5.406 3.888 5.102 3.888 2.257 3.888 .569 3.318-.531 1.936-.815V-.854C3.165-.891 3.888-1.46 3.888-3.395V-6.221C3.888-6.752 3.964-7.549 4.271-8.099H1.705C1.398-7.549 1.337-6.752 1.337-6.221V-3.357C1.337-2.409 .876-1.935 .415-1.935H0V-8.099Z" fill="#273048"/>
<path transform="matrix(1,0,0,-1,319.2341,397.0819)" d="M0 0-.292 3.319H-.775L-1.19 0H-4.356L-2.359 14.504H2.03L3.548 0Z" fill="#f5fbfb"/>
<path transform="matrix(1,0,0,-1,319.2156,391.2142)" d="M0 0-.445 6.012H-.477L-.922 0ZM1.599 8.137 3.012-5.368H.477L.185-2.048H-1.198L-1.613-5.368H-3.765L-1.905 8.137Z" fill="#273048"/>
<path transform="matrix(1,0,0,-1,327.0681,397.3475)" d="M0 0C-1.386 0-3.711 .578-3.711 4.445V10.59C-3.711 14.458-1.386 15.036 0 15.036 2.553 15.036 3.742 13.731 3.742 10.932V8.952H.191V11.311C.191 11.873 .047 11.873 0 11.873-.152 11.873-.16 11.405-.16 11.311V3.725C-.16 3.631-.152 3.162 0 3.162 .047 3.162 .191 3.162 .191 3.725L.21 6.52H3.742V4.236C3.742 .735 1.707 0 0 0" fill="#f5fbfb"/>
<path transform="matrix(1,0,0,-1,330.3103,391.328)" d="M0 0V-1.783C0-4.306-1.091-5.52-3.242-5.52-4.932-5.52-6.453-4.666-6.453-1.574V4.571C-6.453 7.663-4.932 8.516-3.242 8.516-1.383 8.516 0 7.833 0 4.912V3.433H-2.551V5.292C-2.551 5.842-2.688 6.354-3.242 6.354-3.765 6.354-3.902 5.842-3.902 5.292V-2.295C-3.902-2.845-3.765-3.357-3.242-3.357-2.688-3.357-2.551-2.845-2.551-2.295L-2.535 0Z" fill="#273048"/>
<path transform="matrix(1,0,0,-1,335.7078,397.0819)" d="M0 0-.292 3.319H-.776L-1.19 0H-4.356L-2.359 14.504H2.029L3.548 0Z" fill="#f5fbfb"/>
<path transform="matrix(1,0,0,-1,335.6892,391.2142)" d="M0 0-.446 6.012H-.477L-.922 0ZM1.598 8.137 3.012-5.368H.477L.185-2.048H-1.199L-1.613-5.368H-3.765L-1.905 8.137Z" fill="#273048"/>
<path transform="matrix(1,0,0,-1,343.3806,394.10484)" d="M0 0C.292 .093 .353 .391 .353 1.335V6.893C.353 8.159 .353 8.482 0 8.564ZM-3.551-2.977V11.527H-.423C2.628 11.527 3.903 10.817 3.903 6.418V1.601C3.903-1.147 3.168-2.977-.423-2.977Z" fill="#f5fbfb"/>
<path transform="matrix(1,0,0,-1,342.8806,394.6473)" d="M0 0C1.245 0 1.353 .588 1.353 1.878V7.435C1.353 9.237 1.291 9.635 0 9.635ZM-2.551 11.57H.077C2.936 11.57 3.903 11 3.903 6.961V2.143C3.903-.417 3.288-1.935 .077-1.935H-2.551Z" fill="#273048"/>
<path transform="matrix(1,0,0,-1,348.0359,397.0819)" d="M0 0V14.504H6.286V11.456H3.551V9.497H6.193V6.449H3.551V3.048H6.286V0Z" fill="#f5fbfb"/>
<path transform="matrix(1,0,0,-1,348.5359,396.5819)" d="M0 0V13.504H5.286V11.456H2.551V8.497H5.193V6.449H2.551V2.048H5.286V0Z" fill="#273048"/>
<path transform="matrix(1,0,0,-1,362.1423,397.0819)" d="M0 0V4.421L-.565 0H-3.689L-4.255 4.421V0H-7.299V14.504H-2.603L-1.958 8.759-1.314 14.504H3.305V0Z" fill="#f5fbfb"/>
<path transform="matrix(1,0,0,-1,357.3875,396.5819)" d="M0 0H-2.044V13.504H1.705L2.781 3.907H2.812L3.888 13.504H7.56V0H5.255V11.532H5.225L3.749 0H1.506L.03 11.532H0Z" fill="#273048"/>
<path transform="matrix(1,0,0,-1,368.1667,397.0819)" d="M0 0V5.407L-2.31 14.504H1.242L1.775 11.456 2.308 14.504H5.859L3.551 5.407V0Z" fill="#f5fbfb"/>
<path transform="matrix(1,0,0,-1,368.6667,391.6127)" d="M0 0-2.167 8.535H.322L1.26 3.167H1.29L2.228 8.535H4.717L2.551 0V-4.969H0Z" fill="#273048"/>
</g>
</g>
</svg>